<?xml version="1.0" encoding="UTF-8" standalone="no"?>
<svg
   xmlns:dc="http://purl.org/dc/elements/1.1/"
   xmlns:cc="http://creativecommons.org/ns#"
   xmlns:rdf="http://www.w3.org/1999/02/22-rdf-syntax-ns#"
   xmlns:svg="http://www.w3.org/2000/svg"
   xmlns="http://www.w3.org/2000/svg"
   xmlns:sodipodi="http://sodipodi.sourceforge.net/DTD/sodipodi-0.dtd"
   xmlns:inkscape="http://www.inkscape.org/namespaces/inkscape"
   inkscape:version="1.0.1 (3bc2e813f5, 2020-09-07)"
   sodipodi:docname="application-x-desktop.svg"
   id="svg27"
   viewBox="0 0 16.933 16.933"
   version="1.1"
   height="64"
   width="64">
  <sodipodi:namedview
     inkscape:current-layer="svg27"
     inkscape:window-maximized="1"
     inkscape:window-y="30"
     inkscape:window-x="0"
     inkscape:cy="23.409755"
     inkscape:cx="39.957612"
     inkscape:zoom="5.9609375"
     showgrid="false"
     id="namedview29"
     inkscape:window-height="1277"
     inkscape:window-width="2160"
     inkscape:pageshadow="2"
     inkscape:pageopacity="0"
     guidetolerance="10"
     gridtolerance="10"
     objecttolerance="10"
     borderopacity="1"
     bordercolor="#666666"
     pagecolor="#ffffff"
     inkscape:document-rotation="0" />
  <metadata
     id="metadata2">
    <rdf:RDF>
      <cc:Work
         rdf:about="">
        <dc:format>image/svg+xml</dc:format>
        <dc:type
           rdf:resource="http://purl.org/dc/dcmitype/StillImage" />
        <dc:title />
      </cc:Work>
    </rdf:RDF>
  </metadata>
  <defs
     id="defs17">
    <filter
       inkscape:collect="always"
       style="color-interpolation-filters:sRGB"
       id="filter1057"
       x="-0.027000001"
       width="1.054"
       y="-0.027000001"
       height="1.054">
      <feGaussianBlur
         inkscape:collect="always"
         stdDeviation="0.61875"
         id="feGaussianBlur1059" />
    </filter>
  </defs>
  <g
     transform="scale(0.26457812)"
     fill="#5e4aa6"
     id="g30">
    <circle
       cx="-1248.7"
       cy="-1241.6"
       r="0"
       id="circle24" />
    <circle
       cx="-1140.3"
       cy="-1301.8"
       r="0"
       id="circle26" />
    <circle
       cx="-1158.1"
       cy="-1246"
       r="0"
       id="circle28" />
  </g>
  <circle
     style="stroke-width:0.264578"
     cx="-306.19626"
     cy="-335.40567"
     r="0"
     fill="#5e4aa6"
     id="circle36" />
  <circle
     style="stroke-width:0.264578"
     cx="-15.280974"
     cy="-0.57754755"
     r="0"
     fill="#5e4aa6"
     fill-rule="evenodd"
     id="circle38" />
  <rect
     transform="scale(0.26457812)"
     ry="15"
     y="4.5"
     x="4.5"
     height="55"
     width="55"
     id="rect1055"
     style="opacity:0.3;fill:#141414;fill-opacity:1;stroke-width:2.74436;stroke-linecap:round;filter:url(#filter1057)" />
  <rect
     style="fill:#fafafa;fill-opacity:1;stroke-width:0.726098;stroke-linecap:round"
     id="rect1045"
     width="14.551796"
     height="14.551796"
     x="1.1906021"
     y="1.1906021"
     ry="3.9686716" />
  <path
     class="ColorScheme-Text"
     d="M 8.4572189,3.7593764 C 8.233846,3.778284 8.2338934,3.9660697 8.1538046,4.4293412 a 4.0679065,4.047383 0 0 0 -0.4492135,0.06306 C 7.5064867,4.0153924 7.4372528,3.8486188 7.250122,3.911755 7.0349702,3.9843142 7.085389,4.1685231 7.1187721,4.6513452 A 4.0679065,4.047383 0 0 0 6.7010792,4.8234453 C 6.3669628,4.4208543 6.252696,4.2806188 6.091605,4.396499 5.9098957,4.5272202 6.0069845,4.6891771 6.1769848,5.1269071 A 4.0679065,4.047383 0 0 0 5.8144678,5.4054087 C 5.3934175,5.0948882 5.2480453,4.9876683 5.1196613,5.1387348 4.9739332,5.3101468 5.1101707,5.4417814 5.3836777,5.8310618 A 4.0679065,4.047383 0 0 0 5.1104673,6.1844442 C 4.6691664,6.0207552 4.506118,5.9251492 4.3775916,6.1082596 c -0.113721,0.1619333 0.02725,0.275334 0.4334473,0.6016445 A 4.0679065,4.047383 0 0 0 4.6363408,7.1289731 C 4.1720609,7.0850862 3.9902092,7.0367066 3.9139404,7.2458854 3.8468063,7.4299793 4.010531,7.5038992 4.4774327,7.7096198 A 4.0679065,4.047383 0 0 0 4.4196347,8.153649 C 3.9619033,8.242066 3.7730879,8.24547 3.7589587,8.4676215 3.7466917,8.6605656 3.9234545,8.6872104 4.4143911,8.7513785 a 4.0679065,4.047383 0 0 0 0.064358,0.4729169 c -0.4205877,0.183868 -0.6012885,0.2310008 -0.566114,0.4492848 0.031319,0.1943913 0.2107743,0.1776642 0.7250577,0.1300444 a 4.0679065,4.047383 0 0 0 0.1825635,0.4361414 c -0.3585903,0.277291 -0.5218878,0.368163 -0.4347641,0.570135 0.078321,0.181578 0.2494603,0.120649 0.740824,-0.05254 a 4.0679065,4.047383 0 0 0 0.2653214,0.342871 c -0.2704463,0.396197 -0.4059484,0.53005 -0.2574442,0.700157 0.1295348,0.148409 0.2735783,0.03933 0.6843312,-0.271942 a 4.0679065,4.047383 0 0 0 0.3638338,0.279819 c -0.1646144,0.4572 -0.2636606,0.621529 -0.076186,0.750068 0.1641872,0.112605 0.2753815,-0.03083 0.6028782,-0.44403 l -0.080125,-0.04729 a 4.0679065,4.047383 0 0 0 0.4781125,0.203621 c -0.031734,0.469453 -0.077408,0.652905 0.1352884,0.723884 0.1841413,0.06142 0.2537548,-0.101874 0.4426414,-0.560943 a 4.0679065,4.047383 0 0 0 0.4610413,0.06175 c 0.087041,0.519372 0.1156904,0.697511 0.3139252,0.677853 0.2225663,-0.02202 0.2187226,-0.21056 0.2915985,-0.672622 a 4.0679065,4.047383 0 0 0 0.4649799,-0.06044 c 0.1915443,0.465573 0.261312,0.630603 0.446592,0.568819 0.2127559,-0.07095 0.1669991,-0.254028 0.1352887,-0.723871 A 4.0679065,4.047383 0 0 0 10.220026,12.11297 c 0.318055,0.401263 0.430257,0.542067 0.592404,0.430886 0.18407,-0.126238 0.09089,-0.289369 -0.06829,-0.727763 a 4.0679065,4.047383 0 0 0 0.375661,-0.286379 c 0.393456,0.298087 0.537488,0.40182 0.664614,0.256175 0.144791,-0.165895 0.01779,-0.301646 -0.239056,-0.675209 a 4.0679065,4.047383 0 0 0 0.274517,-0.349431 c 0.480414,0.169313 0.650142,0.228392 0.727645,0.04859 0.08661,-0.200774 -0.07407,-0.291445 -0.428204,-0.564881 a 4.0679065,4.047383 0 0 0 0.185196,-0.4413956 c 0.505316,0.046756 0.684747,0.062866 0.715876,-0.1300444 0.03484,-0.2161565 -0.14373,-0.2658753 -0.555599,-0.4453305 a 4.0679065,4.047383 0 0 0 0.0604,-0.4768673 c 0.485416,-0.063481 0.661039,-0.091751 0.648856,-0.283758 C 13.160107,8.2478551 12.973249,8.2418521 12.526503,8.1562234 A 4.0679065,4.047383 0 0 0 12.464779,7.7043168 C 12.923636,7.5021196 13.085724,7.4285439 13.019065,7.2458498 12.943389,7.0383855 12.763009,7.0840232 12.30714,7.1276255 A 4.0679065,4.047383 0 0 0 12.131124,6.701996 C 12.529279,6.3821037 12.668126,6.2687504 12.555377,6.1082406 12.42735,5.9259145 12.264776,6.0206902 11.827734,6.1831342 A 4.0679065,4.047383 0 0 0 11.546646,5.8218749 C 11.841899,5.4055938 11.944705,5.2584895 11.792263,5.1348389 11.620981,4.9959085 11.490236,5.1268312 11.12371,5.3962573 A 4.0679065,4.047383 0 0 0 10.751998,5.1125004 c 0.195412,-0.4758584 0.263745,-0.6411846 0.08669,-0.7277626 -0.203799,-0.099651 -0.297993,0.065264 -0.614706,0.4308849 a 4.0679065,4.047383 0 0 0 -0.4216257,-0.1721 C 9.8461621,4.1228686 9.8633435,3.942832 9.6670686,3.9131146 9.4469216,3.8797931 9.4019724,4.0615474 9.2191596,4.4872007 A 4.0679065,4.047383 0 0 0 8.7581302,4.4306925 C 8.680248,3.9208696 8.6540658,3.7428378 8.4573376,3.7594227 Z M 8.2943485,5.0034748 c 0.450305,-0.00755 0.9847679,0.071802 1.1584932,0.1471161 0.7560103,0.2299334 1.4550283,0.6532495 2.0503263,1.6368905 0.110885,0.1831803 0.191365,0.3605241 0.22724,0.522837 0.0356,0.1706764 0.02248,0.3702162 -0.088,0.5267872 -0.0947,0.1245166 -0.212007,0.2411916 -0.375661,0.2561748 -0.509289,0.047595 -1.200679,0.020239 -1.7455586,0.01446 C 9.4294834,8.1067404 9.342644,8.0696124 9.316284,8.0407374 9.1548252,7.9392113 9.045802,7.7193972 8.8657535,7.6571507 8.5782953,7.5242956 8.4617745,7.6353531 8.2996395,7.4364482 8.0009704,6.9584424 7.7124326,6.4672804 7.4471705,5.9795232 7.2549859,5.6457508 7.3808075,5.3109107 7.6704605,5.130874 7.7837901,5.0431679 8.024175,5.007959 8.2943485,5.0034391 Z M 6.2873249,6.0320892 c 0.023441,-7.218e-4 0.047061,2.18e-4 0.07093,0.00266 0.1552068,0.021131 0.3150996,0.066086 0.4084989,0.200999 0.2915155,0.4193538 0.6072321,1.0328497 0.8695403,1.5093607 0.044143,0.080209 0.05431,0.1744134 0.042032,0.2114977 -0.00949,0.1901797 -0.1482668,0.3922585 -0.1142786,0.5793417 0.025043,0.3150758 0.1795739,0.3617694 0.08538,0.6003512 C 7.3785298,9.6305206 7.0901343,10.123307 6.7943124,10.593234 6.5971453,10.924102 6.2438817,10.977367 5.944489,10.813939 5.5919014,10.666017 5.1179174,9.5566724 5.0867882,9.2559394 4.9165625,8.4858603 4.9429345,7.669586 5.5097366,6.6692773 5.6152957,6.4829888 5.7310336,6.326904 5.8551824,6.2160539 5.9703152,6.1156683 6.1231612,6.0372629 6.2873249,6.032138 Z M 8.4663655,8.1299855 A 0.33625181,0.33629926 0 0 1 8.8026174,8.4662848 0.33625181,0.33629926 0 0 1 8.4663655,8.8025838 0.33625181,0.33629926 0 0 1 8.1301137,8.4662848 0.33625181,0.33629926 0 0 1 8.4663655,8.1299855 Z m 1.8493615,0.7041666 h 0.0013 c 0.282309,0.00141 0.564453,0.00688 0.841993,0.017131 0.385793,0.00486 0.609533,0.2849196 0.617351,0.6253002 0.0479,0.3786034 -0.679206,1.3426827 -0.92468,1.5199187 -0.583329,0.532115 -1.304484,0.91703 -2.4561675,0.927446 C 8.1810641,11.925887 7.9877288,11.903479 7.8294376,11.8517 7.6640424,11.795373 7.4997366,11.683455 7.4209289,11.508841 7.3617433,11.364132 7.320305,11.202449 7.3907133,11.054312 7.6089733,10.592773 7.9829384,10.013752 8.2654852,9.5488668 8.3130331,9.47064 8.3900255,9.4149185 8.4283557,9.4069945 8.5981424,9.3200483 8.8438184,9.339421 8.9892143,9.2165176 9.2501938,9.0373472 9.213133,8.8800167 9.4673269,8.8421138 c 0.2817753,-0.00652 0.5661971,-0.00937 0.8485201,-0.00783 z"
     fill="#b3b3b3"
     stroke-width="0.588522"
     id="path123"
     style="fill:#b3b3b3;fill-opacity:1" />
</svg>
