<?xml version="1.0" encoding="UTF-8" standalone="no"?>
<svg
   xmlns:dc="http://purl.org/dc/elements/1.1/"
   xmlns:cc="http://creativecommons.org/ns#"
   xmlns:rdf="http://www.w3.org/1999/02/22-rdf-syntax-ns#"
   xmlns:svg="http://www.w3.org/2000/svg"
   xmlns="http://www.w3.org/2000/svg"
   xmlns:sodipodi="http://sodipodi.sourceforge.net/DTD/sodipodi-0.dtd"
   xmlns:inkscape="http://www.inkscape.org/namespaces/inkscape"
   inkscape:version="1.0.1 (3bc2e813f5, 2020-09-07)"
   sodipodi:docname="accessories-image-viewer.svg"
   id="svg34"
   viewBox="0 0 16.933 16.933"
   version="1.1"
   height="64"
   width="64">
  <sodipodi:namedview
     inkscape:current-layer="svg34"
     inkscape:window-maximized="1"
     inkscape:window-y="30"
     inkscape:window-x="0"
     inkscape:cy="32.468544"
     inkscape:cx="21.785876"
     inkscape:zoom="11.921875"
     showgrid="false"
     id="namedview36"
     inkscape:window-height="1277"
     inkscape:window-width="2160"
     inkscape:pageshadow="2"
     inkscape:pageopacity="0"
     guidetolerance="10"
     gridtolerance="10"
     objecttolerance="10"
     borderopacity="1"
     bordercolor="#666666"
     pagecolor="#ffffff"
     inkscape:document-rotation="0" />
  <defs
     id="defs20">
    <filter
       inkscape:collect="always"
       style="color-interpolation-filters:sRGB"
       id="filter1057"
       x="-0.027000001"
       width="1.054"
       y="-0.027000001"
       height="1.054">
      <feGaussianBlur
         inkscape:collect="always"
         stdDeviation="0.61875"
         id="feGaussianBlur1059" />
    </filter>
    <clipPath
       clipPathUnits="userSpaceOnUse"
       id="clipPath983">
      <path
         d="M 2.2525093,6.9343082 A 10.430848,13.259218 0 0 0 1.1906015,7.0175204 V 15.742398 H 12.067001 A 10.430848,13.259218 0 0 0 2.2521924,6.9343082 Z"
         opacity="0.15"
         paint-order="stroke markers fill"
         id="path985"
         style="fill:#000000;fill-opacity:1;stroke-width:0.358646" />
    </clipPath>
    <clipPath
       clipPathUnits="userSpaceOnUse"
       id="clipPath853">
      <path
         d="M 15.742398,7.1863059 A 14.420213,18.42071 0 0 0 5.7356032,15.742398 H 15.742398 Z"
         opacity="0.05"
         paint-order="stroke markers fill"
         id="path855"
         style="stroke-width:0.480167" />
    </clipPath>
  </defs>
  <metadata
     id="metadata22">
    <rdf:RDF>
      <cc:Work
         rdf:about="">
        <dc:format>image/svg+xml</dc:format>
        <dc:type
           rdf:resource="http://purl.org/dc/dcmitype/StillImage" />
        <dc:title />
      </cc:Work>
    </rdf:RDF>
  </metadata>
  <rect
     transform="matrix(0.26457812,0,0,0.26457812,0.797703,0.797703)"
     ry="15"
     y="1.485"
     x="1.485"
     height="55"
     width="55"
     id="rect1055"
     style="opacity:0.3;fill:#141414;fill-opacity:1;stroke-width:2.74436;stroke-linecap:round;filter:url(#filter1057)" />
  <path
     d="m 6.224823,1.190601 c -0.665318,0 -1.234972,0.01867 -1.738878,0.06098 -1.604044,0.272531 -2.874861,1.4969707 -3.208526,3.0788208 -3.4e-5,3.212e-4 3.3e-5,7.12e-4 0,0.00103 -0.06492,0.6218829 -0.08682,1.3632035 -0.08682,2.2468468 v 3.7764434 c 0,0.883643 0.02189,1.624963 0.08682,2.246846 3.3e-5,3.22e-4 -3.4e-5,7.13e-4 0,10e-4 0.333665,1.581851 1.604482,2.80629 3.208526,3.078821 0.503902,0.0423 1.073569,0.06098 1.738878,0.06098 h 4.483359 c 0.665303,0 1.234982,-0.01867 1.738878,-0.06098 1.604044,-0.272531 2.87486,-1.49697 3.208526,-3.078821 6.9e-5,-3.29e-4 -7e-5,-7.05e-4 0,-10e-4 0.06492,-0.621883 0.08681,-1.363203 0.08681,-2.246846 V 6.5782821 c 0,-0.8836395 -0.02189,-1.6249652 -0.08681,-2.2468468 -7e-5,-3.289e-4 6.9e-5,-7.049e-4 0,-0.00103 C 15.32192,2.7485517 14.051104,1.524112 12.44706,1.251581 11.943162,1.209271 11.373491,1.190601 10.708182,1.190601 Z"
     style="fill:#4da5f5;stroke-width:0.999999;fill-opacity:1"
     id="background" />
  <circle
     cx="12.483542"
     cy="4.4914837"
     r="1.0583125"
     opacity="0.5"
     fill="#ffffff"
     paint-order="stroke markers fill"
     id="circle12"
     style="stroke-width:0.264578" />
  <path
     d="m 6.224823,1.190601 c -0.665318,0 -1.234972,0.01867 -1.738878,0.06098 -1.604044,0.272531 -2.874861,1.4969707 -3.208526,3.0788208 -3.4e-5,3.212e-4 3.3e-5,7.12e-4 0,0.00103 -0.06492,0.6218829 -0.08682,1.3632035 -0.08682,2.2468468 v 3.7764434 c 0,0.883643 0.02189,1.624963 0.08682,2.246846 3.3e-5,3.22e-4 -3.4e-5,7.13e-4 0,10e-4 0.333665,1.581851 1.604482,2.80629 3.208526,3.078821 0.503902,0.0423 1.073569,0.06098 1.738878,0.06098 h 4.483359 c 0.665303,0 1.234982,-0.01867 1.738878,-0.06098 1.604044,-0.272531 2.87486,-1.49697 3.208526,-3.078821 6.9e-5,-3.29e-4 -7e-5,-7.05e-4 0,-10e-4 0.06492,-0.621883 0.08681,-1.363203 0.08681,-2.246846 V 6.5782821 c 0,-0.8836395 -0.02189,-1.6249652 -0.08681,-2.2468468 -7e-5,-3.289e-4 6.9e-5,-7.049e-4 0,-0.00103 C 15.32192,2.7485517 14.051104,1.524112 12.44706,1.251581 11.943162,1.209271 11.373491,1.190601 10.708182,1.190601 Z"
     style="opacity:0.151499;fill:#000000;fill-opacity:1;stroke-width:0.999999"
     id="left"
     clip-path="url(#clipPath983)" />
  <path
     d="m 6.224823,1.190601 c -0.665318,0 -1.234972,0.01867 -1.738878,0.06098 -1.604044,0.272531 -2.874861,1.4969707 -3.208526,3.0788208 -3.4e-5,3.212e-4 3.3e-5,7.12e-4 0,0.00103 -0.06492,0.6218829 -0.08682,1.3632035 -0.08682,2.2468468 v 3.7764434 c 0,0.883643 0.02189,1.624963 0.08682,2.246846 3.3e-5,3.22e-4 -3.4e-5,7.13e-4 0,10e-4 0.333665,1.581851 1.604482,2.80629 3.208526,3.078821 0.503902,0.0423 1.073569,0.06098 1.738878,0.06098 h 4.483359 c 0.665303,0 1.234982,-0.01867 1.738878,-0.06098 1.604044,-0.272531 2.87486,-1.49697 3.208526,-3.078821 6.9e-5,-3.29e-4 -7e-5,-7.05e-4 0,-10e-4 0.06492,-0.621883 0.08681,-1.363203 0.08681,-2.246846 V 6.5782821 c 0,-0.8836395 -0.02189,-1.6249652 -0.08681,-2.2468468 -7e-5,-3.289e-4 6.9e-5,-7.049e-4 0,-0.00103 C 15.32192,2.7485517 14.051104,1.524112 12.44706,1.251581 11.943162,1.209271 11.373491,1.190601 10.708182,1.190601 Z"
     style="opacity:0.10423702;fill:#000000;fill-opacity:1;stroke-width:0.999999"
     id="right"
     clip-path="url(#clipPath853)" />
</svg>
