<?xml version="1.0" encoding="UTF-8" standalone="no"?>
<svg
   xmlns:dc="http://purl.org/dc/elements/1.1/"
   xmlns:cc="http://creativecommons.org/ns#"
   xmlns:rdf="http://www.w3.org/1999/02/22-rdf-syntax-ns#"
   xmlns:svg="http://www.w3.org/2000/svg"
   xmlns="http://www.w3.org/2000/svg"
   xmlns:xlink="http://www.w3.org/1999/xlink"
   xmlns:sodipodi="http://sodipodi.sourceforge.net/DTD/sodipodi-0.dtd"
   xmlns:inkscape="http://www.inkscape.org/namespaces/inkscape"
   inkscape:version="1.0.1 (3bc2e813f5, 2020-09-07)"
   sodipodi:docname="accessories-screenshot.svg"
   id="svg46"
   viewBox="0 0 16.933 16.933"
   version="1.1"
   height="64"
   width="64">
  <sodipodi:namedview
     inkscape:current-layer="svg46"
     inkscape:window-maximized="1"
     inkscape:window-y="30"
     inkscape:window-x="0"
     inkscape:cy="28.884368"
     inkscape:cx="31.445671"
     inkscape:zoom="4.5906698"
     showgrid="false"
     id="namedview48"
     inkscape:window-height="1277"
     inkscape:window-width="2160"
     inkscape:pageshadow="2"
     inkscape:pageopacity="0"
     guidetolerance="10"
     gridtolerance="10"
     objecttolerance="10"
     borderopacity="1"
     bordercolor="#666666"
     pagecolor="#ffffff"
     inkscape:document-rotation="0" />
  <defs
     id="defs18">
    <filter
       inkscape:collect="always"
       style="color-interpolation-filters:sRGB"
       id="filter1057-5"
       x="-0.027000001"
       width="1.054"
       y="-0.027000001"
       height="1.054">
      <feGaussianBlur
         inkscape:collect="always"
         stdDeviation="0.61875"
         id="feGaussianBlur1059-6" />
    </filter>
    <linearGradient
       inkscape:collect="always"
       xlink:href="#linearGradient957"
       id="linearGradient1053-2"
       x1="-127"
       y1="60"
       x2="-72"
       y2="5"
       gradientUnits="userSpaceOnUse"
       gradientTransform="matrix(0.26457812,0,0,0.26457812,34.792022,-0.1349344)" />
    <linearGradient
       id="linearGradient957"
       x1="6.8699999"
       x2="6.8699999"
       y1="15.131"
       y2="1.8216"
       gradientUnits="userSpaceOnUse"
       gradientTransform="translate(19.938043,7.0918704)">
      <stop
         stop-color="#3b3838"
         offset="0"
         id="stop54" />
      <stop
         stop-color="#535358"
         offset="1"
         id="stop56" />
    </linearGradient>
    <radialGradient
       id="radialGradient1042"
       cx="12.171"
       cy="12.171"
       r="4.7624002"
       gradientUnits="userSpaceOnUse"
       gradientTransform="translate(13.53324,5.5039377)">
      <stop
         offset="0"
         id="stop59" />
      <stop
         stop-opacity="0"
         offset="1"
         id="stop61" />
    </radialGradient>
    <linearGradient
       id="l"
       x1="8.4666996"
       x2="8.4666996"
       y1="-2.9203"
       y2="19.84"
       gradientTransform="matrix(0.37199,0,0,0.37199,9.0211,8.759)"
       gradientUnits="userSpaceOnUse">
      <stop
         stop-color="#ccc"
         offset="0"
         id="stop49" />
      <stop
         stop-color="#ebebeb"
         offset="1"
         id="stop51" />
    </linearGradient>
    <linearGradient
       id="e"
       x1="8.4666996"
       x2="8.4666996"
       y1="280.60001"
       y2="296.47"
       gradientTransform="matrix(0.37645,0,0,0.37645,8.9831,-96.719)"
       gradientUnits="userSpaceOnUse">
      <stop
         stop-color="#666"
         offset="0"
         id="stop34" />
      <stop
         stop-color="#9f9f9f"
         offset="1"
         id="stop36" />
    </linearGradient>
    <linearGradient
       id="d"
       x1="8.4666996"
       x2="8.4666996"
       y1="282.17999"
       y2="294.88"
       gradientTransform="matrix(0.37199,0,0,0.37199,9.0211,-95.424)"
       gradientUnits="userSpaceOnUse">
      <stop
         stop-color="#333"
         offset="0"
         id="stop39" />
      <stop
         stop-color="#666"
         offset="1"
         id="stop41" />
    </linearGradient>
    <linearGradient
       id="c"
       x1="8.4666996"
       x2="8.4666996"
       y1="283.23999"
       y2="293.82001"
       gradientTransform="matrix(0.37199,0,0,0.37199,9.0211,-95.424)"
       gradientUnits="userSpaceOnUse">
      <stop
         offset="0"
         id="stop44" />
      <stop
         stop-color="#121212"
         offset="1"
         id="stop46" />
    </linearGradient>
    <radialGradient
       id="b"
       cx="-136.99001"
       cy="198.64999"
       r="38.5"
       gradientTransform="matrix(0.036528,0,0,0.030678,30.70724,11.316738)"
       gradientUnits="userSpaceOnUse">
      <stop
         stop-color="#2561db"
         stop-opacity=".94118"
         offset="0"
         id="stop2" />
      <stop
         stop-color="#0d0d0d"
         offset="1"
         id="stop4" />
    </radialGradient>
    <filter
       id="n"
       x="-0.10978"
       y="-0.12999"
       width="1.2196"
       height="1.26"
       color-interpolation-filters="sRGB">
      <feGaussianBlur
         stdDeviation="0.15227829"
         id="feGaussianBlur28" />
    </filter>
    <filter
       id="m"
       x="-0.18987"
       y="-0.24323"
       width="1.3796999"
       height="1.4865"
       color-interpolation-filters="sRGB">
      <feGaussianBlur
         stdDeviation="0.15227829"
         id="feGaussianBlur31" />
    </filter>
    <filter
       id="g"
       x="-0.058145002"
       y="-0.061978001"
       width="1.1163"
       height="1.124"
       color-interpolation-filters="sRGB">
      <feGaussianBlur
         stdDeviation="0.12802309"
         id="feGaussianBlur22" />
    </filter>
    <filter
       id="a"
       x="-0.062444001"
       y="-0.06656"
       width="1.1249"
       height="1.1331"
       color-interpolation-filters="sRGB">
      <feGaussianBlur
         stdDeviation="0.085527836"
         id="feGaussianBlur13" />
    </filter>
    <filter
       id="i"
       x="-0.055238999"
       y="-0.06566"
       width="1.1105"
       height="1.1313"
       color-interpolation-filters="sRGB">
      <feGaussianBlur
         stdDeviation="0.7624247"
         id="feGaussianBlur16" />
    </filter>
    <filter
       id="j"
       x="-0.011629"
       y="-0.012396"
       width="1.0233001"
       height="1.0247999"
       color-interpolation-filters="sRGB">
      <feGaussianBlur
         stdDeviation="0.030455491"
         id="feGaussianBlur10" />
    </filter>
    <filter
       id="k"
       x="-0.23258001"
       y="-0.24790999"
       width="1.4651999"
       height="1.4958"
       color-interpolation-filters="sRGB">
      <feGaussianBlur
         stdDeviation="1.0607186"
         id="feGaussianBlur7" />
    </filter>
    <filter
       id="f"
       x="-0.19628"
       y="-0.30877"
       width="1.3926001"
       height="1.6174999"
       color-interpolation-filters="sRGB">
      <feGaussianBlur
         stdDeviation="2.9878037"
         id="feGaussianBlur25" />
    </filter>
    <filter
       id="h"
       x="-0.23258001"
       y="-0.24790999"
       width="1.4651999"
       height="1.4958"
       color-interpolation-filters="sRGB">
      <feGaussianBlur
         stdDeviation="0.51209235"
         id="feGaussianBlur19" />
    </filter>
  </defs>
  <metadata
     id="metadata20">
    <rdf:RDF>
      <cc:Work
         rdf:about="">
        <dc:format>image/svg+xml</dc:format>
        <dc:type
           rdf:resource="http://purl.org/dc/dcmitype/StillImage" />
        <dc:title />
      </cc:Work>
    </rdf:RDF>
  </metadata>
  <g
     transform="scale(0.26457812)"
     id="g30"
     fill="#5e4aa6">
    <circle
       id="circle24"
       r="0"
       cy="-1241.6"
       cx="-1248.7" />
    <circle
       id="circle26"
       r="0"
       cy="-1301.8"
       cx="-1140.3" />
    <circle
       id="circle28"
       r="0"
       cy="-1246"
       cx="-1158.1" />
  </g>
  <circle
     style="stroke-width:0.264578"
     id="circle36"
     fill="#5e4aa6"
     r="0"
     cy="-335.40567"
     cx="-306.19626" />
  <circle
     style="stroke-width:0.264578"
     id="circle38"
     fill-rule="evenodd"
     fill="#5e4aa6"
     r="0"
     cy="-0.57754755"
     cx="-15.280974" />
  <rect
     ry="15"
     y="1.485"
     x="1.485"
     height="55"
     width="55"
     id="rect1055-7"
     style="opacity:0.3;fill:#141414;fill-opacity:1;stroke-width:2.74436;stroke-linecap:round;filter:url(#filter1057-5)"
     transform="matrix(0.26457812,0,0,0.26457812,0.79770305,0.79770305)" />
  <rect
     style="fill:url(#linearGradient1053-2);fill-opacity:1;stroke-width:0.726098;stroke-linecap:round"
     id="rect1045-0"
     width="14.551796"
     height="14.551796"
     x="1.1906021"
     y="1.1906021"
     ry="3.9686716" />
  <path
     d="m 11.1123,3.1748861 v 0.52916 h 1.58748 c 0.293155,0 0.52916,0.236003 0.52916,0.52916 v 1.58748 h 0.52916 v -1.58748 c 0,-0.586309 -0.472011,-1.05832 -1.05832,-1.05832 z m -6.87908,0.0026 c -0.586309,0 -1.05832,0.472011 -1.05832,1.05832 v 1.58748 h 0.52916 v -1.58748 c 0,-0.293155 0.236003,-0.52916 0.52916,-0.52916 H 5.8207 v -0.52916 z m 3.378157,2.643207 -0.104384,0.05116 c -0.13224,0.06498 -0.192959,0.13493 -0.302812,0.34779 -0.09572,0.185444 -0.17928,0.281805 -0.292493,0.337948 -0.06756,0.03352 -0.124864,0.0368 -0.772045,0.04548 -0.679362,0.0091 -0.701243,0.0107 -0.790644,0.05168 -0.119995,0.055 -0.223732,0.1557 -0.278021,0.270269 l -0.04341,0.09198 -5.16e-4,1.832931 c -1.99e-4,2.0315249 -0.0061,1.9262749 0.120921,2.0747829 0.03505,0.04098 0.114614,0.100202 0.176732,0.131256 l 0.112652,0.05633 h 6.058353 l 0.113168,-0.05684 c 0.06819,-0.0341 0.138566,-0.08765 0.177248,-0.134872 0.126477,-0.154446 0.120085,-0.04117 0.119886,-2.0701269 l -5.02e-4,-1.83346 -0.04341,-0.09198 c -0.0543,-0.114515 -0.158029,-0.215264 -0.278029,-0.270271 -0.08939,-0.04097 -0.111288,-0.04256 -0.790644,-0.05167 -0.779876,-0.01046 -0.772812,-0.0095 -0.905367,-0.142108 C 9.84883,6.4217121 9.777257,6.3133361 9.7289,6.2196461 9.619041,6.0067491 9.558325,5.9368621 9.426088,5.8718551 L 9.321703,5.8206951 H 7.611246 Z m 0.77514,1.078984 c 0.157021,-0.0065 0.315618,0.001 0.431504,0.02429 0.338371,0.06793 0.658354,0.235629 0.912087,0.477487 0.258629,0.24652 0.430365,0.533261 0.524,0.876422 0.03722,0.136369 0.04252,0.196474 0.04134,0.469206 -0.0011,0.284529 -0.0058,0.327867 -0.05064,0.474894 -0.08853,0.290774 -0.204576,0.50384 -0.394277,0.726034 -0.214757,0.2515359 -0.594168,0.4822499 -0.933253,0.5673919 -0.207489,0.0521 -0.52072,0.07174 -0.69918,0.04392 C 7.62618,10.467062 7.103767,10.101123 6.836276,9.5914361 6.674256,9.2827241 6.618572,9.0281991 6.632158,8.6571521 c 0.01366,-0.373085 0.09735,-0.635548 0.299214,-0.940503 0.238328,-0.36004 0.604724,-0.628351 1.034031,-0.757043 0.108772,-0.03261 0.264139,-0.05342 0.421159,-0.05994 z m 0.176216,0.5085 c -0.07861,-0.0048 -0.158938,-0.003 -0.240292,0.0062 -0.532811,0.06029 -0.95942,0.417983 -1.128592,0.94619 -0.05268,0.164466 -0.0641,0.464364 -0.0248,0.645946 0.06175,0.285243 0.236965,0.575541 0.460422,0.761196 0.326227,0.2709829 0.804826,0.3690899 1.217994,0.2495949 0.205171,-0.05934 0.388959,-0.1712099 0.559137,-0.3400389 0.17585,-0.17445 0.269422,-0.324533 0.343636,-0.549823 0.03955,-0.120046 0.04664,-0.176777 0.04806,-0.380334 0.0013,-0.202668 -0.0048,-0.260341 -0.04134,-0.376709 C 9.580845,7.8092261 9.112991,7.4419361 8.562717,7.4082021 Z M 3.183822,11.112297 v 1.58748 c 0,0.586309 0.47201,1.061601 1.05832,1.05832 h 1.58748 v -0.52916 h -1.58748 c -0.293155,0 -0.52916,-0.236003 -0.52916,-0.52916 v -1.58748 z"
     fill="#f8f8f8"
     stroke-width="0.264581"
     id="path128" />
  <g
     id="g1076"
     transform="matrix(0.9088302,0,0,0.9088302,-11.445934,-3.6811624)">
    <circle
       cx="25.704241"
       cy="17.674936"
       r="4.7624002"
       fill="url(#radialGradient1042)"
       stroke-width="1.125"
       id="circle130"
       style="fill:url(#radialGradient1042)" />
    <g
       stroke-width="0.53336"
       id="g144"
       transform="translate(13.53324,5.5039376)">
      <circle
         cx="12.171"
         cy="11.906"
         r="4.2333002"
         fill="url(#l)"
         id="circle136"
         style="fill:url(#l)" />
      <circle
         cx="12.171"
         cy="11.906"
         r="2.9633999"
         fill="url(#e)"
         id="circle138"
         style="fill:url(#e)" />
      <circle
         cx="12.171"
         cy="11.906"
         r="2.3620999"
         fill="url(#d)"
         id="circle140"
         style="fill:url(#d)" />
      <circle
         cx="12.171"
         cy="11.906"
         r="1.9685"
         fill="url(#c)"
         id="circle142"
         style="fill:url(#c)" />
    </g>
    <circle
       cx="25.704241"
       cy="17.409937"
       r="1.5311"
       fill="url(#b)"
       stroke="#0d224d"
       stroke-linecap="round"
       stroke-linejoin="round"
       stroke-width="0.12511"
       id="circle146"
       style="fill:url(#b)" />
    <g
       transform="matrix(0.37198999,0,0,0.37198999,22.55434,14.262938)"
       stroke-width="1.4338"
       id="g172">
      <path
         d="m 4.9448,6.47 1.4646,0.81043 c 0,0 0.45771,-0.47747 0.77192,-0.68614 0.34816,-0.2312 1.1047,-0.41587 1.0925,-0.36047 L 8.033,4.47172 c 0,0 -1.6213,-0.1607 -3.0882,1.9983 z"
         fill="#4678cc"
         filter="url(#n)"
         opacity="0.8"
         id="path148" />
      <path
         d="m 4.7877,6.73 1.565,0.69539 c 0,0 -0.088292,0.20162 -0.12307,0.42093 -0.031791,0.20052 0.00444,0.38623 0.00444,0.38623 l -1.8062,-0.0183 c 0,0 0.072193,-1.0359 0.35991,-1.4842 z"
         fill="#4678cc"
         filter="url(#m)"
         opacity="0.8"
         id="path150" />
      <g
         transform="translate(0,-280.07)"
         fill="#ffffff"
         id="g162">
        <ellipse
           transform="matrix(0.15683,-0.13591,0.13591,0.15683,36.278,248.68)"
           cx="-228.33"
           cy="44.944"
           rx="3.0829999"
           ry="1.9028"
           fill-opacity="0.3"
           filter="url(#g)"
           id="ellipse152" />
        <ellipse
           transform="matrix(0.10291,-0.08918,0.08918,0.10291,26.112,262.03)"
           cx="-228.10001"
           cy="51.166"
           rx="1.9177999"
           ry="1.1837"
           fill-opacity="0.3"
           filter="url(#a)"
           id="ellipse154" />
        <ellipse
           transform="matrix(0.11873,-0.079425,0.079425,0.11873,27.406,259.75)"
           cx="-222.03"
           cy="111.72"
           rx="18.419001"
           ry="11.368"
           filter="url(#i)"
           opacity="0.2"
           id="ellipse156" />
        <ellipse
           transform="matrix(0.10291,-0.08918,0.08918,0.10291,26.764,261.46)"
           cx="-235.28999"
           cy="75.045998"
           rx="3.6670001"
           ry="2.2632999"
           fill-opacity="0.3"
           filter="url(#j)"
           id="ellipse158" />
        <ellipse
           transform="matrix(0.12523,-0.10853,0.10853,0.12523,29.918,254.7)"
           cx="-234.21001"
           cy="88.759003"
           rx="6.3859"
           ry="3.9412999"
           filter="url(#k)"
           id="ellipse160" />
      </g>
      <g
         transform="translate(0,-280.07)"
         id="g170">
        <ellipse
           transform="matrix(0.14046,-0.082814,0.082814,0.14046,31.651,256.02)"
           cx="-222.03"
           cy="111.72"
           rx="18.419001"
           ry="11.368"
           fill="#4397ee"
           filter="url(#f)"
           opacity="0.45"
           id="ellipse164" />
        <ellipse
           transform="matrix(0.081325,-0.070476,0.070476,0.081325,22.059,267.13)"
           cx="-228.33"
           cy="44.944"
           rx="3.0829999"
           ry="1.9028"
           fill="#ffffff"
           fill-opacity="0.85417"
           filter="url(#h)"
           id="ellipse166" />
        <ellipse
           transform="matrix(0.069156,-0.05993,0.05993,0.069156,20.8,271.49)"
           cx="-228.10001"
           cy="51.166"
           rx="1.9177999"
           ry="1.1837"
           fill="#ffffff"
           fill-opacity="0.3"
           filter="url(#a)"
           id="ellipse168" />
      </g>
    </g>
  </g>
</svg>
