<?xml version="1.0" encoding="UTF-8" standalone="no"?>
<svg
   xmlns:dc="http://purl.org/dc/elements/1.1/"
   xmlns:cc="http://creativecommons.org/ns#"
   xmlns:rdf="http://www.w3.org/1999/02/22-rdf-syntax-ns#"
   xmlns:svg="http://www.w3.org/2000/svg"
   xmlns="http://www.w3.org/2000/svg"
   xmlns:xlink="http://www.w3.org/1999/xlink"
   xmlns:sodipodi="http://sodipodi.sourceforge.net/DTD/sodipodi-0.dtd"
   xmlns:inkscape="http://www.inkscape.org/namespaces/inkscape"
   width="64"
   height="64"
   version="1.1"
   viewBox="0 0 64 64"
   id="svg64"
   sodipodi:docname="bovo.svg"
   inkscape:version="1.0.1 (3bc2e813f5, 2020-09-07)">
  <sodipodi:namedview
     pagecolor="#ffffff"
     bordercolor="#666666"
     borderopacity="1"
     objecttolerance="10"
     gridtolerance="10"
     guidetolerance="10"
     inkscape:pageopacity="0"
     inkscape:pageshadow="2"
     inkscape:window-width="2160"
     inkscape:window-height="1277"
     id="namedview66"
     showgrid="false"
     inkscape:zoom="11.484375"
     inkscape:cx="-8.6821398"
     inkscape:cy="32"
     inkscape:window-x="0"
     inkscape:window-y="30"
     inkscape:window-maximized="1"
     inkscape:current-layer="svg64" />
  <metadata
     id="metadata2">
    <rdf:RDF>
      <cc:Work
         rdf:about="">
        <dc:format>image/svg+xml</dc:format>
        <dc:type
           rdf:resource="http://purl.org/dc/dcmitype/StillImage" />
        <dc:title />
      </cc:Work>
    </rdf:RDF>
  </metadata>
  <defs
     id="defs18">
    <style
       type="text/css"
       id="style4" />
    <style
       type="text/css"
       id="style6" />
    <style
       type="text/css"
       id="style8" />
    <linearGradient
       id="linearGradient4673"
       x1="1.2573"
       x2="15.644"
       y1="15.429"
       y2="1.1082"
       gradientTransform="matrix(3.7796 0 0 3.7796 -.0026448 .53066)"
       gradientUnits="userSpaceOnUse">
      <stop
         stop-color="#32dcff"
         offset="0"
         id="stop13" />
      <stop
         stop-color="#3296ff"
         offset="1"
         id="stop15" />
    </linearGradient>
    <filter
       inkscape:collect="always"
       style="color-interpolation-filters:sRGB"
       id="filter1057"
       x="-0.027000001"
       width="1.054"
       y="-0.027000001"
       height="1.054">
      <feGaussianBlur
         inkscape:collect="always"
         stdDeviation="0.61875"
         id="feGaussianBlur1059" />
    </filter>
    <linearGradient
       inkscape:collect="always"
       xlink:href="#linearGradient4673"
       id="linearGradient1053"
       x1="-127"
       y1="60"
       x2="-72"
       y2="5"
       gradientUnits="userSpaceOnUse"
       gradientTransform="translate(131.5,-0.5099987)" />
  </defs>
  <g
     fill="#5e4aa6"
     id="g42">
    <circle
       cx="-1248.7"
       cy="-1241.6"
       r="0"
       id="circle20" />
    <circle
       cx="-149.15"
       cy="23.855"
       r="0"
       fill-rule="evenodd"
       id="circle22" />
    <g
       transform="translate(-97.627 -47.458)"
       id="g30">
      <circle
         cx="-1401.7"
         cy="-1262.9"
         r="0"
         id="circle24" />
      <circle
         cx="-302.14"
         cy="2.5994"
         r="0"
         fill-rule="evenodd"
         id="circle26" />
      <circle
         cx="-1124.8"
         cy="-1279.3"
         r="0"
         id="circle28" />
    </g>
    <g
       transform="matrix(3.7796 0 0 3.7796 26.203 -85.642)"
       stroke-width=".26458"
       id="g40">
      <circle
         cx="-299.02"
         cy="-338.77"
         r="0"
         id="circle32" />
      <circle
         cx="-8.1062"
         cy="-3.9487"
         r="0"
         fill-rule="evenodd"
         id="circle34" />
      <circle
         cx="-278.25"
         cy="-357.69"
         r="0"
         id="circle36" />
      <circle
         cx="12.663"
         cy="-22.859"
         r="0"
         fill-rule="evenodd"
         id="circle38" />
    </g>
  </g>
  <rect
     ry="15"
     y="4.4999995"
     x="4.4999995"
     height="55"
     width="55"
     id="rect1055"
     style="opacity:0.3;fill:#141414;fill-opacity:1;stroke-width:2.74436;stroke-linecap:round;filter:url(#filter1057)" />
  <rect
     style="fill:url(#linearGradient1053);fill-opacity:1;stroke-width:2.74436;stroke-linecap:round"
     id="rect1045"
     width="54.999996"
     height="54.999996"
     x="4.5000019"
     y="4.5000019"
     ry="14.999999" />
  <g
     transform="translate(.105 -.77386)"
     fill="#fff"
     id="g62">
    <path
       d="m12.263 28.068c-0.43456 0.43456-0.43456 1.1342 0 1.5688l3.1376 3.1376-3.1376 3.1376c-0.43456 0.43456-0.43456 1.1342 0 1.5688 0.43456 0.43456 1.1342 0.43456 1.5688 0l3.1376-3.1376 3.1376 3.1376c0.43456 0.43456 1.1342 0.43456 1.5688 0 0.43456-0.43456 0.43456-1.1342 0-1.5688l-3.1376-3.1376 3.1376-3.1376c0.43456-0.43456 0.43456-1.1342 0-1.5688-0.43456-0.43456-1.1342-0.43456-1.5688 0l-3.1376 3.1376-3.1376-3.1376c-0.43456-0.43456-1.1342-0.43456-1.5688 0z"
       id="path48" />
    <path
       d="m31.391 27.742c-3.0728 0-5.5466 2.4738-5.5466 5.5466s2.4738 5.5466 5.5466 5.5466 5.5466-2.4738 5.5466-5.5466-2.4738-5.5466-5.5466-5.5466zm0 2.2186c1.8437 0 3.3279 1.4843 3.3279 3.3279 0 1.8437-1.4843 3.3279-3.3279 3.3279s-3.3279-1.4843-3.3279-3.3279c0-1.8437 1.4843-3.3279 3.3279-3.3279z"
       id="path50" />
    <path
       d="m36.611 41.506c0.43456 0.43456 0.43456 1.1342 0 1.5688l-3.1376 3.1376 3.1376 3.1376c0.43456 0.43456 0.43456 1.1342 0 1.5688-0.43456 0.43456-1.1342 0.43456-1.5688 0l-3.1376-3.1376-3.1376 3.1376c-0.43456 0.43456-1.1342 0.43456-1.5688 0-0.43456-0.43456-0.43456-1.1342 0-1.5688l3.1376-3.1376-3.1376-3.1376c-0.43456-0.43456-0.43456-1.1342 0-1.5688 0.43456-0.43456 1.1342-0.43456 1.5688 0l3.1376 3.1376 3.1376-3.1376c0.43456-0.43456 1.1342-0.43456 1.5688 0z"
       id="path52" />
    <path
       d="m12.263 15.143c-0.43456 0.43456-0.43456 1.1342 0 1.5688l3.1376 3.1376-3.1376 3.1376c-0.43456 0.43456-0.43456 1.1342 0 1.5688 0.43456 0.43456 1.1342 0.43456 1.5688 0l3.1376-3.1376 3.1376 3.1376c0.43456 0.43456 1.1342 0.43456 1.5688 0 0.43456-0.43456 0.43456-1.1342 0-1.5688l-3.1376-3.1376 3.1376-3.1376c0.43456-0.43456 0.43456-1.1342 0-1.5688-0.43456-0.43456-1.1342-0.43456-1.5688 0l-3.1376 3.1376-3.1376-3.1376c-0.43456-0.43456-1.1342-0.43456-1.5688 0z"
       id="path54" />
    <path
       d="m31.381 14.303c-3.0728 0-5.5466 2.4738-5.5466 5.5466s2.4738 5.5466 5.5466 5.5466 5.5466-2.4738 5.5466-5.5466-2.4738-5.5466-5.5466-5.5466zm0 2.2186c1.8437 0 3.3279 1.4843 3.3279 3.3279 0 1.8437-1.4843 3.3279-3.3279 3.3279s-3.3279-1.4843-3.3279-3.3279c0-1.8437 1.4843-3.3279 3.3279-3.3279z"
       id="path56" />
    <path
       d="m51.527 41.506c0.43456 0.43456 0.43456 1.1342 0 1.5688l-3.1376 3.1376 3.1376 3.1376c0.43456 0.43456 0.43456 1.1342 0 1.5688-0.43456 0.43456-1.1342 0.43456-1.5688 0l-3.1376-3.1376-3.1376 3.1376c-0.43456 0.43456-1.1342 0.43456-1.5688 0-0.43456-0.43456-0.43456-1.1342 0-1.5688l3.1376-3.1376-3.1376-3.1376c-0.43456-0.43456-0.43456-1.1342 0-1.5688 0.43456-0.43456 1.1342-0.43456 1.5688 0l3.1376 3.1376 3.1376-3.1376c0.43456-0.43456 1.1342-0.43456 1.5688 0z"
       id="path58" />
    <path
       d="m46.306 14.303c-3.0728 0-5.5466 2.4738-5.5466 5.5466s2.4738 5.5466 5.5466 5.5466 5.5466-2.4738 5.5466-5.5466-2.4738-5.5466-5.5466-5.5466zm0 2.2186c1.8437 0 3.3279 1.4843 3.3279 3.3279 0 1.8437-1.4843 3.3279-3.3279 3.3279s-3.3279-1.4843-3.3279-3.3279c0-1.8437 1.4843-3.3279 3.3279-3.3279z"
       id="path60" />
  </g>
</svg>
