<?xml version="1.0" encoding="UTF-8" standalone="no"?>
<svg
   xmlns:dc="http://purl.org/dc/elements/1.1/"
   xmlns:cc="http://creativecommons.org/ns#"
   xmlns:rdf="http://www.w3.org/1999/02/22-rdf-syntax-ns#"
   xmlns:svg="http://www.w3.org/2000/svg"
   xmlns="http://www.w3.org/2000/svg"
   xmlns:xlink="http://www.w3.org/1999/xlink"
   xmlns:sodipodi="http://sodipodi.sourceforge.net/DTD/sodipodi-0.dtd"
   xmlns:inkscape="http://www.inkscape.org/namespaces/inkscape"
   width="64"
   height="64"
   version="1.1"
   viewBox="0 0 16.933 16.933"
   id="svg58"
   sodipodi:docname="brackets.svg"
   inkscape:version="1.0.1 (3bc2e813f5, 2020-09-07)">
  <sodipodi:namedview
     pagecolor="#ffffff"
     bordercolor="#666666"
     borderopacity="1"
     objecttolerance="10"
     gridtolerance="10"
     guidetolerance="10"
     inkscape:pageopacity="0"
     inkscape:pageshadow="2"
     inkscape:window-width="2160"
     inkscape:window-height="1277"
     id="namedview60"
     showgrid="false"
     inkscape:zoom="11.484375"
     inkscape:cx="4.7313872"
     inkscape:cy="32"
     inkscape:window-x="0"
     inkscape:window-y="30"
     inkscape:window-maximized="1"
     inkscape:current-layer="svg58" />
  <metadata
     id="metadata2">
    <rdf:RDF>
      <cc:Work
         rdf:about="">
        <dc:format>image/svg+xml</dc:format>
        <dc:type
           rdf:resource="http://purl.org/dc/dcmitype/StillImage" />
        <dc:title />
      </cc:Work>
    </rdf:RDF>
  </metadata>
  <defs
     id="defs18">
    <style
       type="text/css"
       id="style4" />
    <style
       type="text/css"
       id="style6" />
    <linearGradient
       id="linearGradient4673"
       x1="1.2573"
       x2="15.644"
       y1="15.429"
       y2="1.1082"
       gradientTransform="translate(-.00069512 .14041)"
       gradientUnits="userSpaceOnUse">
      <stop
         stop-color="#32dcff"
         offset="0"
         id="stop11" />
      <stop
         stop-color="#3296ff"
         offset="1"
         id="stop13" />
    </linearGradient>
    <style
       type="text/css"
       id="style16" />
    <filter
       inkscape:collect="always"
       style="color-interpolation-filters:sRGB"
       id="filter1057"
       x="-0.027000001"
       width="1.054"
       y="-0.027000001"
       height="1.054">
      <feGaussianBlur
         inkscape:collect="always"
         stdDeviation="0.61875"
         id="feGaussianBlur1059" />
    </filter>
    <linearGradient
       inkscape:collect="always"
       xlink:href="#linearGradient4673"
       id="linearGradient1053"
       x1="-127"
       y1="60"
       x2="-72"
       y2="5"
       gradientUnits="userSpaceOnUse"
       gradientTransform="matrix(0.26457812,0,0,0.26457812,34.792022,-0.13493466)" />
  </defs>
  <g
     fill="#5e4aa6"
     id="g44">
    <circle
       cx="-297.6"
       cy="-338.47"
       r="0"
       stroke-width=".26458"
       id="circle20" />
    <g
       transform="translate(32.763,-10.103)"
       stroke-width=".26458"
       id="g30">
      <circle
         cx="-299.02"
         cy="-338.77"
         r="0"
         id="circle22" />
      <circle
         cx="-8.1062"
         cy="-3.9487"
         r="0"
         fill-rule="evenodd"
         id="circle24" />
      <circle
         cx="-278.25"
         cy="-357.69"
         r="0"
         id="circle26" />
      <circle
         cx="12.663"
         cy="-22.859"
         r="0"
         fill-rule="evenodd"
         id="circle28" />
    </g>
    <circle
       cx="-297.6"
       cy="-338.47"
       r="0"
       stroke-width=".26458"
       id="circle32" />
    <g
       transform="translate(32.763 -10.103)"
       stroke-width=".26458"
       id="g42">
      <circle
         cx="-299.02"
         cy="-338.77"
         r="0"
         id="circle34" />
      <circle
         cx="-8.1062"
         cy="-3.9487"
         r="0"
         fill-rule="evenodd"
         id="circle36" />
      <circle
         cx="-278.25"
         cy="-357.69"
         r="0"
         id="circle38" />
      <circle
         cx="12.663"
         cy="-22.859"
         r="0"
         fill-rule="evenodd"
         id="circle40" />
    </g>
  </g>
  <rect
     ry="15"
     y="1.485"
     x="1.485"
     height="55"
     width="55"
     id="rect1055"
     style="opacity:0.3;fill:#141414;fill-opacity:1;stroke-width:2.74436;stroke-linecap:round;filter:url(#filter1057)"
     transform="matrix(0.26457812,0,0,0.26457812,0.79770305,0.79770305)" />
  <rect
     style="fill:url(#linearGradient1053);fill-opacity:1;stroke-width:0.726098;stroke-linecap:round"
     id="rect1045"
     width="14.551796"
     height="14.551796"
     x="1.1906021"
     y="1.1906021"
     ry="3.9686716" />
  <path
     d="m10.097 3.1751c3.2035 0 3.6612 0.48931 3.6612 3.9183v2.7461c0 3.4292-0.45783 3.9183-3.6612 3.9183h-3.2604c-3.2035 0-3.6614-0.48929-3.6614-3.9183v-2.7461c0-3.4292 0.45783-3.9183 3.6614-3.9183z"
     enable-background="new"
     fill="#fff"
     stroke-width=".72725"
     id="path50" />
  <g
     transform="matrix(.0088586 0 0 .0088586 3.9309 3.9309)"
     id="g56">
    <path
       d="m960 128v768a64 64 0 0 1-64 64h-224a32 32 0 0 1-32-32v-64a32 32 0 0 1 32-32h160v-640h-160a32 32 0 0 1-32-32v-64a32 32 0 0 1 32-32h224a64 64 0 0 1 64 64z"
       opacity=".4"
       p-id="1498"
       id="path52" />
    <path
       d="m352 64h-224a64 64 0 0 0-64 64v768a64 64 0 0 0 64 64h224a32 32 0 0 0 32-32v-64a32 32 0 0 0-32-32h-160v-640h160a32 32 0 0 0 32-32v-64a32 32 0 0 0-32-32z"
       p-id="1499"
       id="path54" />
  </g>
</svg>
