<?xml version="1.0" encoding="UTF-8" standalone="no"?>
<svg
   xmlns:dc="http://purl.org/dc/elements/1.1/"
   xmlns:cc="http://creativecommons.org/ns#"
   xmlns:rdf="http://www.w3.org/1999/02/22-rdf-syntax-ns#"
   xmlns:svg="http://www.w3.org/2000/svg"
   xmlns="http://www.w3.org/2000/svg"
   xmlns:xlink="http://www.w3.org/1999/xlink"
   xmlns:sodipodi="http://sodipodi.sourceforge.net/DTD/sodipodi-0.dtd"
   xmlns:inkscape="http://www.inkscape.org/namespaces/inkscape"
   width="64"
   height="64"
   version="1.1"
   id="svg90"
   sodipodi:docname="brave-beta.svg"
   inkscape:version="1.0.1 (3bc2e813f5, 2020-09-07)">
  <sodipodi:namedview
     pagecolor="#ffffff"
     bordercolor="#666666"
     borderopacity="1"
     objecttolerance="10"
     gridtolerance="10"
     guidetolerance="10"
     inkscape:pageopacity="0"
     inkscape:pageshadow="2"
     inkscape:window-width="2160"
     inkscape:window-height="1277"
     id="namedview92"
     showgrid="false"
     inkscape:zoom="11.484375"
     inkscape:cx="8.0660199"
     inkscape:cy="32"
     inkscape:window-x="0"
     inkscape:window-y="30"
     inkscape:window-maximized="1"
     inkscape:current-layer="svg90" />
  <metadata
     id="metadata2">
    <rdf:RDF>
      <cc:Work
         rdf:about="">
        <dc:format>image/svg+xml</dc:format>
        <dc:type
           rdf:resource="http://purl.org/dc/dcmitype/StillImage" />
        <dc:title />
      </cc:Work>
    </rdf:RDF>
  </metadata>
  <defs
     id="defs30">
    <linearGradient
       id="b-3"
       x1="399.57"
       x2="399.57"
       y1="545.8"
       y2="517.8"
       gradientTransform="matrix(2.1429 0 0 2.1429 -963.59 -1143.3)"
       gradientUnits="userSpaceOnUse">
      <stop
         stop-color="#3889e9"
         offset="0"
         id="stop4" />
      <stop
         stop-color="#5ea5fb"
         offset="1"
         id="stop6" />
    </linearGradient>
    <style
       type="text/css"
       id="style9" />
    <linearGradient
       id="linearGradient927"
       x1="39.034"
       x2="-7.7455"
       y1="24.542"
       y2="71.322"
       gradientTransform="matrix(2.0044,0,0,2.0044,123.77,261.85)"
       gradientUnits="userSpaceOnUse">
      <stop
         stop-color="#ffbe14"
         offset="0"
         id="stop11" />
      <stop
         stop-color="#ff8214"
         offset="1"
         id="stop13" />
    </linearGradient>
    <style
       type="text/css"
       id="style16" />
    <style
       type="text/css"
       id="style18" />
    <linearGradient
       id="linearGradient4673"
       x1="1.4377"
       x2="15.644"
       y1="15.601"
       y2="1.1082"
       gradientTransform="matrix(3.7796 0 0 3.7796 -.0032125 .81133)"
       gradientUnits="userSpaceOnUse">
      <stop
         stop-color="#ff4637"
         offset="0"
         id="stop23" />
      <stop
         stop-color="#fa4b5a"
         offset=".47728"
         id="stop25" />
      <stop
         stop-color="#ff3c5f"
         offset="1"
         id="stop27" />
    </linearGradient>
    <filter
       inkscape:collect="always"
       style="color-interpolation-filters:sRGB"
       id="filter1057"
       x="-0.027000001"
       width="1.054"
       y="-0.027000001"
       height="1.054">
      <feGaussianBlur
         inkscape:collect="always"
         stdDeviation="0.61875"
         id="feGaussianBlur1059" />
    </filter>
    <linearGradient
       inkscape:collect="always"
       xlink:href="#linearGradient4673"
       id="linearGradient1053"
       x1="-127"
       y1="60"
       x2="-72"
       y2="5"
       gradientUnits="userSpaceOnUse"
       gradientTransform="translate(131.5,-0.50999823)" />
  </defs>
  <g
     transform="translate(-137.22 -35.254)"
     fill="#5e4aa6"
     id="g66">
    <g
       image-rendering="optimizeSpeed"
       id="g48">
      <circle
         cx="-1248.6"
         cy="-1241.1"
         r="0"
         id="circle36" />
      <g
         transform="matrix(3.7796,0,0,3.7796,-6.9956e-4,6.044e-4)"
         stroke-width=".26458"
         id="g44">
        <circle
           cx="-330.35"
           cy="-328.38"
           r="0"
           id="circle38" />
        <circle
           cx="-330.35"
           cy="-328.38"
           r="0"
           id="circle40" />
        <circle
           cx="-352.63"
           cy="-336.84"
           r="0"
           id="circle42" />
      </g>
      <circle
         cx="-1248.6"
         cy="-1241.1"
         r="0"
         id="circle46" />
    </g>
    <g
       transform="translate(92.643 .35997)"
       image-rendering="optimizeSpeed"
       id="g62">
      <circle
         cx="-1248.6"
         cy="-1241.1"
         r="0"
         id="circle50" />
      <g
         transform="matrix(3.7796,0,0,3.7796,-6.9956e-4,6.044e-4)"
         stroke-width=".26458"
         id="g58">
        <circle
           cx="-330.35"
           cy="-328.38"
           r="0"
           id="circle52" />
        <circle
           cx="-330.35"
           cy="-328.38"
           r="0"
           id="circle54" />
        <circle
           cx="-352.63"
           cy="-336.84"
           r="0"
           id="circle56" />
      </g>
      <circle
         cx="-1248.6"
         cy="-1241.1"
         r="0"
         id="circle60" />
    </g>
    <circle
       cx="-1152.9"
       cy="-1242.3"
       r="0"
       id="circle64" />
  </g>
  <circle
     cx="-105.21"
     cy="-3.7102"
     r="0"
     fill="url(#b-3)"
     stroke-width="1.5715"
     id="circle68" />
  <circle
     cx="-1179.3"
     cy="-1268.3"
     r="0"
     fill="#5e4aa6"
     id="circle70" />
  <circle
     cx="-1173.6"
     cy="-1229.2"
     r="0"
     fill="#5e4aa6"
     image-rendering="optimizeSpeed"
     id="circle72" />
  <g
     transform="translate(171.85 7.9683)"
     id="g78">
    <g
       transform="translate(1,1)"
       id="g76">
      <g
         opacity=".1"
         id="g74">
        <!-- color: #e57e29 -->
      </g>
    </g>
  </g>
  <rect
     ry="15"
     y="4.4999995"
     x="4.4999995"
     height="55"
     width="55"
     id="rect1055"
     style="opacity:0.3;fill:#141414;fill-opacity:1;stroke-width:2.74436;stroke-linecap:round;filter:url(#filter1057)" />
  <rect
     style="fill:url(#linearGradient1053);fill-opacity:1;stroke-width:2.74436;stroke-linecap:round"
     id="rect1045"
     width="54.999996"
     height="54.999996"
     x="4.5000019"
     y="4.5000019"
     ry="14.999999" />
  <g
     transform="matrix(.7 0 0 .7 9.5998 9.6)"
     stroke-width="1.1905"
     id="g84">
    <path
       d="m23.667 4.9167c-1.0417 0-4.6875 4.1667-5.2083 4.1667h-2.6042c-1.0417 0-4.6875 3.6458-4.6875 4.6875v3.125c0 0.52083-4.1437 4.1667-4.1667 5.2083-0.02292 1.0417 7.2917 25.521 8.3333 26.562 1.0417 1.0417 12.5 10.417 15.625 10.417h2.0833c3.125 0 14.583-9.375 15.625-10.417 1.0417-1.0417 8.3542-25.521 8.3333-26.562-0.02292-1.0354-4.1667-4.6875-4.1667-5.2083v-3.125c0-1.0417-3.6458-4.6875-4.6875-4.6875h-2.6042c-0.52083 0-4.1667-4.1667-5.2083-4.1667z"
       fill="url(#linearGradient927)"
       id="path80" />
    <path
       d="m32 12.192c-1.0375 0-2.0708 0.35625-3.125 1.0583-3.125 2.0833-7.2917-1.0417-8.3333-1.0417-1.0417 0-7.2917 7.5896-7.2917 10.417 0 2.0833 7.8125 6.875 7.8125 8.3333 0 1.0417-1.5625 1.5417-1.5625 3.7521 0 1.4562 2.0833 4.0604 4.1667 4.0604 2.0833 0 7.2958-4.0896 7.2917-5.1021v-0.62708c0-1.25-4.6875-2.825-4.6875-5.2083 0-2.0833 1.5625-2.8542 1.5625-5.2083 0-2.025-4.1667-2.6042-7.2917-3.125-1.0417 0 3.125-3.4271 8.8541 0.27708 1.45 0.9375-1.5625 4.6437-1.0417 8.0562 0.78125 0.72917 2.2146 1.0937 3.6458 1.0937 1.4333 0 2.8646-0.36458 3.6458-1.0937 0.52083-3.4125-2.4917-7.1187-1.0417-8.0562 5.7292-3.7042 9.8958-0.27708 8.8541-0.27708-3.125 0.52083-7.2917 1.1-7.2917 3.125 0 2.3542 1.5625 3.125 1.5625 5.2083 0 2.3833-4.6875 3.9583-4.6875 5.2083v0.62708c-0.0042 1.0125 5.2083 5.1021 7.2917 5.1021 2.0833 0 4.1667-2.6042 4.1667-4.0604 0-2.2083-1.5625-2.7104-1.5625-3.7521 0-1.4583 7.8125-6.25 7.8125-8.3333 0-2.8271-6.25-10.417-7.2917-10.417s-5.2083 3.125-8.3333 1.0417c-1.0542-0.70208-2.0833-1.0583-3.125-1.0583zm0 24.808c-2.0833 0-6.7708 3.2292-6.7708 3.8542s4.6875 5.7292 6.7708 5.7292 6.7708-5.1042 6.7708-5.7292-4.6875-3.8542-6.7708-3.8542z"
       fill="#f9f9f9"
       id="path82" />
  </g>
  <circle
     cx="-1080"
     cy="-1247.9"
     r="0"
     fill="#5e4aa6"
     id="circle86" />
  <circle
     cx="19.546"
     cy="17.545"
     r="0"
     fill="#5e4aa6"
     fill-rule="evenodd"
     id="circle88" />
</svg>
