<?xml version="1.0" encoding="UTF-8" standalone="no"?>
<svg
   xmlns:dc="http://purl.org/dc/elements/1.1/"
   xmlns:cc="http://creativecommons.org/ns#"
   xmlns:rdf="http://www.w3.org/1999/02/22-rdf-syntax-ns#"
   xmlns:svg="http://www.w3.org/2000/svg"
   xmlns="http://www.w3.org/2000/svg"
   xmlns:xlink="http://www.w3.org/1999/xlink"
   xmlns:sodipodi="http://sodipodi.sourceforge.net/DTD/sodipodi-0.dtd"
   xmlns:inkscape="http://www.inkscape.org/namespaces/inkscape"
   width="64"
   height="64"
   version="1.1"
   viewBox="0 0 16.933 16.933"
   id="svg28"
   sodipodi:docname="calc.svg"
   inkscape:version="1.0.1 (3bc2e813f5, 2020-09-07)">
  <sodipodi:namedview
     pagecolor="#ffffff"
     bordercolor="#666666"
     borderopacity="1"
     objecttolerance="10"
     gridtolerance="10"
     guidetolerance="10"
     inkscape:pageopacity="0"
     inkscape:pageshadow="2"
     inkscape:window-width="2160"
     inkscape:window-height="1277"
     id="namedview30"
     showgrid="false"
     inkscape:zoom="8.1206794"
     inkscape:cx="3.8202818"
     inkscape:cy="18.437387"
     inkscape:window-x="0"
     inkscape:window-y="30"
     inkscape:window-maximized="1"
     inkscape:current-layer="svg28"
     inkscape:document-rotation="0" />
  <defs
     id="defs10">
    <linearGradient
       id="linearGradient1024"
       x1="1.3315"
       x2="14.217"
       y1="15.576"
       y2="2.6243"
       gradientUnits="userSpaceOnUse">
      <stop
         stop-color="#ff7d1e"
         offset="0"
         id="stop5" />
      <stop
         stop-color="#ffa53c"
         offset="1"
         id="stop7" />
    </linearGradient>
    <linearGradient
       id="linearGradient1249"
       x1="8.4665003"
       x2="8.4665003"
       y1="15.875"
       y2="1.0583"
       gradientUnits="userSpaceOnUse">
      <stop
         stop-color="#bfbfbd"
         offset="0"
         id="stop57" />
      <stop
         stop-color="#d4d6d6"
         offset="1"
         id="stop59" />
    </linearGradient>
    <filter
       id="filter1411"
       x="-0.23314001"
       y="-0.16320001"
       width="1.4663"
       height="1.3264"
       color-interpolation-filters="sRGB">
      <feGaussianBlur
         stdDeviation="0.719652"
         id="feGaussianBlur68" />
    </filter>
    <linearGradient
       id="linearGradient4687"
       x1="-1.7842"
       x2="6.9661999"
       y1="-27.458"
       y2="-19.625999"
       gradientTransform="matrix(3.2483,0,0,3.192,25.795,106.65)"
       gradientUnits="userSpaceOnUse">
      <stop
         stop-color="#4d5055"
         offset="0"
         id="stop62" />
      <stop
         stop-color="#131311"
         offset="1"
         id="stop64" />
    </linearGradient>
    <linearGradient
       id="linearGradient1090"
       x1="11.906"
       x2="11.906"
       y1="15.081"
       y2="10.054"
       gradientTransform="scale(3.7796)"
       gradientUnits="userSpaceOnUse"
       xlink:href="#linearGradient1110" />
    <linearGradient
       id="linearGradient1110"
       x1="8.4667997"
       x2="8.4667997"
       y1="14.808"
       y2="2.1085999"
       gradientTransform="translate(43.314,0.0079998)"
       gradientUnits="userSpaceOnUse">
      <stop
         stop-color="#2f5fdd"
         offset="0"
         id="stop27" />
      <stop
         stop-color="#1a7fd4"
         offset="1"
         id="stop29" />
    </linearGradient>
    <linearGradient
       id="linearGradient1249-5"
       x1="8.4665003"
       x2="8.4665003"
       y1="15.875"
       y2="1.0583"
       gradientUnits="userSpaceOnUse"
       gradientTransform="translate(5.6224173,-9.5731652)">
      <stop
         stop-color="#bfbfbd"
         offset="0"
         id="stop57-6" />
      <stop
         stop-color="#d4d6d6"
         offset="1"
         id="stop59-2" />
    </linearGradient>
    <filter
       id="filter1411-9"
       x="-0.23314001"
       y="-0.16320001"
       width="1.4663"
       height="1.3264"
       color-interpolation-filters="sRGB">
      <feGaussianBlur
         stdDeviation="0.719652"
         id="feGaussianBlur68-1" />
    </filter>
    <linearGradient
       id="linearGradient1499"
       x1="8.4667997"
       x2="8.4667997"
       y1="14.808"
       y2="2.1085999"
       gradientTransform="matrix(0.91666017,0,0,0.88709373,2.5554315,-18.483056)"
       gradientUnits="userSpaceOnUse"
       xlink:href="#linearGradient1110" />
    <linearGradient
       id="linearGradient1102"
       x1="8.4665003"
       x2="8.4665003"
       y1="15.875"
       y2="1.0583"
       gradientTransform="matrix(0.8184217,0,0,0.79202389,3.3868423,-17.678817)"
       gradientUnits="userSpaceOnUse">
      <stop
         stop-color="#161616"
         offset="0"
         id="stop22" />
      <stop
         stop-color="#474747"
         offset="1"
         id="stop24" />
    </linearGradient>
    <linearGradient
       id="linearGradient1131"
       x1="8.4665003"
       x2="8.4665003"
       y1="1.852"
       y2="2.6458001"
       gradientTransform="matrix(1,0,0,2,0,-1.852)"
       gradientUnits="userSpaceOnUse"
       xlink:href="#linearGradient1129" />
    <linearGradient
       id="linearGradient1129">
      <stop
         offset="0"
         id="stop2" />
      <stop
         stop-opacity="0"
         offset="1"
         id="stop4" />
    </linearGradient>
    <radialGradient
       id="radialGradient1146"
       cx="16"
       cy="16"
       r="4.5"
       gradientTransform="matrix(6.7193e-8,-2,2,-1.4533e-7,-16,48)"
       gradientUnits="userSpaceOnUse">
      <stop
         stop-opacity="0"
         offset="0"
         id="stop33" />
      <stop
         stop-opacity="0"
         offset=".33333"
         id="stop35" />
      <stop
         offset="1"
         id="stop37" />
    </radialGradient>
    <radialGradient
       id="radialGradient1152"
       cx="16"
       cy="16"
       r="4.5"
       gradientTransform="matrix(1.7778e-8,0.52916,0.52916,3.845e-8,-4.2333,4.2332)"
       gradientUnits="userSpaceOnUse">
      <stop
         stop-opacity="0"
         offset="0"
         id="stop40" />
      <stop
         stop-opacity="0"
         offset=".33333"
         id="stop42" />
      <stop
         offset="1"
         id="stop44" />
    </radialGradient>
    <linearGradient
       id="linearGradient1156"
       x1="8.4665003"
       x2="8.4665003"
       y1="1.852"
       y2="2.6458001"
       gradientTransform="matrix(1,0,0,2,-16.933,-1.852)"
       gradientUnits="userSpaceOnUse"
       xlink:href="#linearGradient1129" />
    <linearGradient
       id="linearGradient1160"
       x1="8.4665003"
       x2="8.4665003"
       y1="1.852"
       y2="2.6458001"
       gradientTransform="matrix(0.5,0,0,2,-10.583,-18.785)"
       gradientUnits="userSpaceOnUse"
       xlink:href="#linearGradient1129" />
    <radialGradient
       id="radialGradient1164"
       cx="16"
       cy="16"
       r="4.5"
       gradientTransform="matrix(0.52916,1.7778e-8,3.845e-8,0.52916,4.2332,-4.2333)"
       gradientUnits="userSpaceOnUse">
      <stop
         stop-opacity="0"
         offset="0"
         id="stop49" />
      <stop
         stop-opacity="0"
         offset=".33333"
         id="stop51" />
      <stop
         offset="1"
         id="stop53" />
    </radialGradient>
    <linearGradient
       id="linearGradient1168"
       x1="8.4665003"
       x2="8.4665003"
       y1="1.852"
       y2="2.6458001"
       gradientTransform="matrix(0.5,0,0,2,2.1166,-18.785)"
       gradientUnits="userSpaceOnUse"
       xlink:href="#linearGradient1129" />
    <linearGradient
       id="linearGradient1499-6"
       x1="8.4667997"
       x2="8.4667997"
       y1="14.808"
       y2="2.1085999"
       gradientTransform="translate(-46.150772,-11.169074)"
       gradientUnits="userSpaceOnUse"
       xlink:href="#linearGradient1110" />
    <linearGradient
       id="linearGradient1102-7"
       x1="8.4665003"
       x2="8.4665003"
       y1="15.875"
       y2="1.0583"
       gradientTransform="matrix(0.89283,0,0,0.89283,-45.243772,-10.262474)"
       gradientUnits="userSpaceOnUse">
      <stop
         stop-color="#161616"
         offset="0"
         id="stop22-4" />
      <stop
         stop-color="#474747"
         offset="1"
         id="stop24-5" />
    </linearGradient>
    <linearGradient
       id="linearGradient1131-2"
       x1="8.4665003"
       x2="8.4665003"
       y1="1.852"
       y2="2.6458001"
       gradientTransform="matrix(1,0,0,2,0,-1.852)"
       gradientUnits="userSpaceOnUse"
       xlink:href="#linearGradient1129" />
    <radialGradient
       id="radialGradient1146-7"
       cx="16"
       cy="16"
       r="4.5"
       gradientTransform="matrix(6.7193e-8,-2,2,-1.4533e-7,-16,48)"
       gradientUnits="userSpaceOnUse">
      <stop
         stop-opacity="0"
         offset="0"
         id="stop33-4" />
      <stop
         stop-opacity="0"
         offset=".33333"
         id="stop35-4" />
      <stop
         offset="1"
         id="stop37-3" />
    </radialGradient>
    <radialGradient
       id="radialGradient1152-0"
       cx="16"
       cy="16"
       r="4.5"
       gradientTransform="matrix(1.7778e-8,0.52916,0.52916,3.845e-8,-4.2333,4.2332)"
       gradientUnits="userSpaceOnUse">
      <stop
         stop-opacity="0"
         offset="0"
         id="stop40-7" />
      <stop
         stop-opacity="0"
         offset=".33333"
         id="stop42-8" />
      <stop
         offset="1"
         id="stop44-6" />
    </radialGradient>
    <linearGradient
       id="linearGradient1156-8"
       x1="8.4665003"
       x2="8.4665003"
       y1="1.852"
       y2="2.6458001"
       gradientTransform="matrix(1,0,0,2,-16.933,-1.852)"
       gradientUnits="userSpaceOnUse"
       xlink:href="#linearGradient1129" />
    <linearGradient
       id="linearGradient1160-8"
       x1="8.4665003"
       x2="8.4665003"
       y1="1.852"
       y2="2.6458001"
       gradientTransform="matrix(0.5,0,0,2,-10.583,-18.785)"
       gradientUnits="userSpaceOnUse"
       xlink:href="#linearGradient1129" />
    <radialGradient
       id="radialGradient1164-4"
       cx="16"
       cy="16"
       r="4.5"
       gradientTransform="matrix(0.52916,1.7778e-8,3.845e-8,0.52916,4.2332,-4.2333)"
       gradientUnits="userSpaceOnUse">
      <stop
         stop-opacity="0"
         offset="0"
         id="stop49-3" />
      <stop
         stop-opacity="0"
         offset=".33333"
         id="stop51-1" />
      <stop
         offset="1"
         id="stop53-4" />
    </radialGradient>
    <linearGradient
       id="linearGradient1168-9"
       x1="8.4665003"
       x2="8.4665003"
       y1="1.852"
       y2="2.6458001"
       gradientTransform="matrix(0.5,0,0,2,2.1166,-18.785)"
       gradientUnits="userSpaceOnUse"
       xlink:href="#linearGradient1129" />
    <linearGradient
       id="linearGradient1499-0"
       x1="8.4667997"
       x2="8.4667997"
       y1="14.808"
       y2="2.1085999"
       gradientTransform="matrix(0.91666017,0,0,0.88709373,2.5554315,-18.483056)"
       gradientUnits="userSpaceOnUse"
       xlink:href="#linearGradient1110" />
    <linearGradient
       id="linearGradient1102-77"
       x1="8.4665003"
       x2="8.4665003"
       y1="15.875"
       y2="1.0583"
       gradientTransform="matrix(0.8184217,0,0,0.79202389,3.3868423,-17.678817)"
       gradientUnits="userSpaceOnUse">
      <stop
         stop-color="#161616"
         offset="0"
         id="stop22-1" />
      <stop
         stop-color="#474747"
         offset="1"
         id="stop24-1" />
    </linearGradient>
    <radialGradient
       id="radialGradient1146-76"
       cx="16"
       cy="16"
       r="4.5"
       gradientTransform="matrix(6.7193e-8,-2,2,-1.4533e-7,-16,48)"
       gradientUnits="userSpaceOnUse">
      <stop
         stop-opacity="0"
         offset="0"
         id="stop33-7" />
      <stop
         stop-opacity="0"
         offset=".33333"
         id="stop35-3" />
      <stop
         offset="1"
         id="stop37-6" />
    </radialGradient>
    <radialGradient
       id="radialGradient1152-5"
       cx="16"
       cy="16"
       r="4.5"
       gradientTransform="matrix(1.7778e-8,0.52916,0.52916,3.845e-8,-4.2333,4.2332)"
       gradientUnits="userSpaceOnUse">
      <stop
         stop-opacity="0"
         offset="0"
         id="stop40-6" />
      <stop
         stop-opacity="0"
         offset=".33333"
         id="stop42-3" />
      <stop
         offset="1"
         id="stop44-9" />
    </radialGradient>
    <radialGradient
       id="radialGradient1164-2"
       cx="16"
       cy="16"
       r="4.5"
       gradientTransform="matrix(0.52916,1.7778e-8,3.845e-8,0.52916,4.2332,-4.2333)"
       gradientUnits="userSpaceOnUse">
      <stop
         stop-opacity="0"
         offset="0"
         id="stop49-9" />
      <stop
         stop-opacity="0"
         offset=".33333"
         id="stop51-3" />
      <stop
         offset="1"
         id="stop53-9" />
    </radialGradient>
    <filter
       inkscape:collect="always"
       style="color-interpolation-filters:sRGB"
       id="filter1057"
       x="-0.027000001"
       width="1.054"
       y="-0.027000001"
       height="1.054">
      <feGaussianBlur
         inkscape:collect="always"
         stdDeviation="0.61875"
         id="feGaussianBlur1059" />
    </filter>
  </defs>
  <metadata
     id="metadata12">
    <rdf:RDF>
      <cc:Work
         rdf:about="">
        <dc:format>image/svg+xml</dc:format>
        <dc:type
           rdf:resource="http://purl.org/dc/dcmitype/StillImage" />
        <dc:title />
      </cc:Work>
    </rdf:RDF>
  </metadata>
  <rect
     ry="15"
     y="1.485"
     x="1.485"
     height="55"
     width="55"
     id="rect1055"
     style="opacity:0.3;fill:#141414;fill-opacity:1;stroke-width:2.74436;stroke-linecap:round;filter:url(#filter1057)"
     transform="matrix(0.26457812,0,0,0.26457812,0.79770305,0.79770305)" />
  <g
     id="g1457"
     transform="matrix(1.0713909,0,0,1.1071,-2.5863292,20.621986)">
    <rect
       x="3.5252595"
       y="-17.551607"
       width="13.582154"
       height="13.144068"
       rx="2.910671"
       ry="2.8167887"
       fill="url(#linearGradient1499)"
       id="rect138"
       style="fill:url(#linearGradient1499-0);stroke-width:0.901756" />
    <path
       d="m 6.435654,-16.847167 c -1.2092581,0 -2.1827512,0.942094 -2.1827512,2.112348 v 7.5106682 c 0,1.170254 0.9734931,2.1123476 2.1827512,2.1123476 h 3.880498 v -4.4594202 c 0,-0.7801636 0.649013,-1.4082616 1.455198,-1.4082616 h 4.60805 v -3.755334 c 0,-1.170254 -0.973493,-2.112348 -2.182751,-2.112348 z"
       fill="url(#linearGradient1102)"
       stroke-width="0.238587"
       id="path140"
       style="fill:url(#linearGradient1102-77)" />
    <g
       transform="matrix(0.91666017,0,0,0.88709373,2.5554315,-18.490153)"
       stroke-linecap="round"
       stroke-linejoin="round"
       id="g156">
      <rect
         x="4.2333002"
         y="1.852"
         width="8.4665003"
         height="1.5875"
         rx="0"
         ry="0"
         fill="url(#linearGradient1131)"
         opacity="0.15"
         stroke-width="0.57966"
         id="rect142"
         style="fill:url(#linearGradient1131-2)" />
      <path
         transform="scale(0.26458)"
         d="m 15.99,7 a 9,9 0 0 0 -8.9902,9 h 9 V 7 A 9,9 0 0 0 15.99,7 Z"
         fill="url(#radialGradient1146)"
         opacity="0.15"
         stroke-width="2.5714"
         id="path144"
         style="fill:url(#radialGradient1146-76)" />
      <path
         d="M 4.2307,15.081 A 2.3812,2.3812 0 0 1 1.8521,12.6998 h 2.3812 v 2.3812 a 2.3812,2.3812 0 0 1 -0.00258,0 z"
         fill="url(#radialGradient1152)"
         opacity="0.15"
         stroke-width="0.68034"
         id="path146"
         style="fill:url(#radialGradient1152-5)" />
      <rect
         transform="rotate(-90)"
         x="-12.7"
         y="1.852"
         width="8.4665003"
         height="1.5875"
         rx="0"
         ry="0"
         fill="url(#linearGradient1156)"
         opacity="0.15"
         stroke-width="0.57966"
         id="rect148"
         style="fill:url(#linearGradient1156-8)" />
      <rect
         transform="matrix(0,-1,-1,0,0,0)"
         x="-8.4665003"
         y="-15.081"
         width="4.2333002"
         height="1.5875"
         rx="0"
         ry="0"
         fill="url(#linearGradient1160)"
         opacity="0.15"
         stroke-width="0.40988"
         id="rect150"
         style="fill:url(#linearGradient1160-8)" />
      <path
         d="M 15.081,4.2307 A 2.3812,2.3812 0 0 0 12.6998,1.8521 v 2.3812 h 2.3812 a 2.3812,2.3812 0 0 0 0,-0.0026 z"
         fill="url(#radialGradient1164)"
         opacity="0.15"
         stroke-width="0.68034"
         id="path152"
         style="fill:url(#radialGradient1164-2)" />
      <rect
         transform="scale(1,-1)"
         x="4.2333002"
         y="-15.081"
         width="4.2332001"
         height="1.5875"
         rx="0"
         ry="0"
         fill="url(#linearGradient1168)"
         opacity="0.15"
         stroke-width="0.40988"
         id="rect154"
         style="fill:url(#linearGradient1168-9)" />
    </g>
    <g
       transform="matrix(0.91666017,0,0,0.88709373,2.5554315,-18.490153)"
       id="g182">
      <path
         d="m 5.1596,4.4104 c -0.07329,0 -0.13229,0.059001 -0.13229,0.13229 V 5.46872 H 4.10128 c -0.07329,0 -0.13229,0.059001 -0.13229,0.13229 0,0.073289 0.059,0.13229 0.13229,0.13229 h 0.92603 v 0.92603 c 0,0.073289 0.059,0.13229 0.13229,0.13229 0.07329,0 0.13229,-0.059001 0.13229,-0.13229 V 5.7333 h 0.92603 c 0.07329,0 0.13229,-0.059001 0.13229,-0.13229 0,-0.073289 -0.059,-0.13229 -0.13229,-0.13229 H 5.29189 V 4.54269 c 0,-0.073289 -0.059,-0.13229 -0.13229,-0.13229 z"
         opacity="0.15"
         stroke-width="0.26458"
         id="path158" />
      <path
         d="m 12.964,5.601 c 0,0.073288 -0.059,0.13229 -0.13229,0.13229 h -2.1166 c -0.07329,0 -0.13229,-0.059001 -0.13229,-0.13229 0,-0.073288 0.059,-0.13229 0.13229,-0.13229 h 2.1166 c 0.07329,0 0.13229,0.059001 0.13229,0.13229 z"
         opacity="0.15"
         id="path160" />
      <path
         d="m 6.0015,10.977 c -0.05182,-0.05182 -0.13526,-0.05182 -0.18708,0 l -0.6548,0.6548 -0.6548,-0.6548 c -0.05182,-0.05182 -0.13526,-0.05182 -0.18708,0 -0.05182,0.05182 -0.05182,0.13526 0,0.18708 l 0.6548,0.6548 -0.6548,0.6548 c -0.05182,0.05182 -0.05182,0.13526 0,0.18708 0.05182,0.05182 0.13526,0.05182 0.18708,0 l 0.6548,-0.6548 0.6548,0.6548 c 0.05182,0.05182 0.13526,0.05182 0.18708,0 0.05182,-0.05182 0.05182,-0.13526 0,-0.18708 l -0.6548,-0.6548 0.6548,-0.6548 c 0.05182,-0.05182 0.05182,-0.13526 0,-0.18708 z"
         opacity="0.15"
         id="path162" />
      <g
         fill="#ffffff"
         id="g170">
        <path
           d="m 5.1596,4.2333 c -0.07329,0 -0.13229,0.059001 -0.13229,0.13229 V 5.29162 H 4.10128 c -0.07329,0 -0.13229,0.059001 -0.13229,0.13229 0,0.073289 0.059,0.13229 0.13229,0.13229 h 0.92603 v 0.92603 c 0,0.073289 0.059,0.13229 0.13229,0.13229 0.07329,0 0.13229,-0.059001 0.13229,-0.13229 V 5.5562 h 0.92603 c 0.07329,0 0.13229,-0.059001 0.13229,-0.13229 0,-0.073289 -0.059,-0.13229 -0.13229,-0.13229 H 5.29189 V 4.36559 c 0,-0.073289 -0.059,-0.13229 -0.13229,-0.13229 z"
           stroke-width="0.26458"
           id="path164" />
        <path
           d="m 12.964,5.4239 c 0,0.073288 -0.059,0.13229 -0.13229,0.13229 h -2.1166 c -0.07329,0 -0.13229,-0.059001 -0.13229,-0.13229 0,-0.073288 0.059,-0.13229 0.13229,-0.13229 h 2.1166 c 0.07329,0 0.13229,0.059001 0.13229,0.13229 z"
           id="path166" />
        <path
           d="M 6.0015,10.8 C 5.94968,10.74818 5.86624,10.74818 5.81442,10.8 L 5.15962,11.4548 4.50482,10.8 c -0.05182,-0.05182 -0.13526,-0.05182 -0.18708,0 -0.05182,0.05182 -0.05182,0.13526 0,0.18708 l 0.6548,0.6548 -0.6548,0.6548 c -0.05182,0.05182 -0.05182,0.13526 0,0.18708 0.05182,0.05182 0.13526,0.05182 0.18708,0 l 0.6548,-0.6548 0.6548,0.6548 c 0.05182,0.05182 0.13526,0.05182 0.18708,0 0.05182,-0.05182 0.05182,-0.13526 0,-0.18708 l -0.6548,-0.6548 0.6548,-0.6548 c 0.05182,-0.05182 0.05182,-0.13526 0,-0.18708 z"
           id="path168" />
      </g>
      <g
         stroke-width="1.0541"
         id="g180">
        <path
           d="m 13.229,11.378 c 0,0.07329 -0.06555,0.13229 -0.14699,0.13229 h -2.3518 c -0.08143,0 -0.14699,-0.059 -0.14699,-0.13229 0,-0.07329 0.06555,-0.13229 0.14699,-0.13229 h 2.3518 c 0.08143,0 0.14699,0.059 0.14699,0.13229 z"
           opacity="0.15"
           id="path172" />
        <path
           d="m 13.229,12.7 c 0,0.07329 -0.06555,0.13229 -0.14699,0.13229 h -2.3518 c -0.08143,0 -0.14699,-0.059 -0.14699,-0.13229 0,-0.07329 0.06555,-0.13229 0.14699,-0.13229 h 2.3518 c 0.08143,0 0.14699,0.059 0.14699,0.13229 z"
           opacity="0.15"
           id="path174" />
        <path
           d="m 13.229,11.245 c 0,0.07329 -0.06556,0.13229 -0.14699,0.13229 h -2.3518 c -0.08143,0 -0.14699,-0.059 -0.14699,-0.13229 0,-0.07329 0.06556,-0.13229 0.14699,-0.13229 h 2.3518 c 0.08143,0 0.14699,0.059 0.14699,0.13229 z"
           fill="#ffffff"
           id="path176" />
        <path
           d="m 13.229,12.567 c 0,0.07329 -0.06556,0.13229 -0.14699,0.13229 h -2.3518 c -0.08143,0 -0.14699,-0.059 -0.14699,-0.13229 0,-0.07329 0.06556,-0.13229 0.14699,-0.13229 h 2.3518 c 0.08143,0 0.14699,0.059 0.14699,0.13229 z"
           fill="#ffffff"
           id="path178" />
      </g>
    </g>
    <path
       d="m 11.771533,-11.21421 c -0.940493,0 -1.697746,0.732757 -1.697746,1.6429866 v 4.4594202 h 0.24253 v -4.4594202 c 0,-0.7801636 0.649013,-1.4082616 1.455198,-1.4082616 h 4.60805 v -0.234707 z"
       opacity="0.1"
       stroke-linecap="round"
       stroke-linejoin="round"
       stroke-width="0.477173"
       id="path184" />
  </g>
</svg>
