<?xml version="1.0" encoding="UTF-8" standalone="no"?>
<svg
   xmlns:dc="http://purl.org/dc/elements/1.1/"
   xmlns:cc="http://creativecommons.org/ns#"
   xmlns:rdf="http://www.w3.org/1999/02/22-rdf-syntax-ns#"
   xmlns:svg="http://www.w3.org/2000/svg"
   xmlns="http://www.w3.org/2000/svg"
   xmlns:xlink="http://www.w3.org/1999/xlink"
   xmlns:sodipodi="http://sodipodi.sourceforge.net/DTD/sodipodi-0.dtd"
   xmlns:inkscape="http://www.inkscape.org/namespaces/inkscape"
   width="64"
   height="64"
   version="1.1"
   viewBox="0 0 16.933 16.933"
   id="svg39"
   sodipodi:docname="fcitx-sogoupinyin.svg"
   inkscape:version="1.0.1 (3bc2e813f5, 2020-09-07)">
  <sodipodi:namedview
     pagecolor="#ffffff"
     bordercolor="#666666"
     borderopacity="1"
     objecttolerance="10"
     gridtolerance="10"
     guidetolerance="10"
     inkscape:pageopacity="0"
     inkscape:pageshadow="2"
     inkscape:window-width="2160"
     inkscape:window-height="1277"
     id="namedview41"
     showgrid="false"
     inkscape:zoom="11.484375"
     inkscape:cx="-8.6309174"
     inkscape:cy="32"
     inkscape:window-x="0"
     inkscape:window-y="30"
     inkscape:window-maximized="1"
     inkscape:current-layer="svg39" />
  <defs
     id="defs21">
    <linearGradient
       id="linearGradient2645-3"
       x1="15.752"
       x2="1.3927"
       y1="281.24"
       y2="295.6"
       gradientTransform="translate(-.13126 -280.07)"
       gradientUnits="userSpaceOnUse">
      <stop
         stop-color="#ffdc32"
         offset="0"
         id="stop8" />
      <stop
         stop-color="#ff7832"
         offset="1"
         id="stop10" />
    </linearGradient>
    <filter
       id="filter905"
       x="-.055661"
       y="-.065073"
       width="1.1113"
       height="1.1301"
       color-interpolation-filters="sRGB">
      <feGaussianBlur
         stdDeviation="0.21113719"
         id="feGaussianBlur13" />
    </filter>
    <linearGradient
       id="linearGradient892"
       x1="4.2408"
       x2="13.345"
       y1="8.4207"
       y2="8.4207"
       gradientTransform="translate(14.056 .42995)"
       gradientUnits="userSpaceOnUse">
      <stop
         stop-color="#fafadc"
         offset="0"
         id="stop16" />
      <stop
         stop-color="#faf0a0"
         offset="1"
         id="stop18" />
    </linearGradient>
    <filter
       inkscape:collect="always"
       style="color-interpolation-filters:sRGB"
       id="filter1057"
       x="-0.027000001"
       width="1.054"
       y="-0.027000001"
       height="1.054">
      <feGaussianBlur
         inkscape:collect="always"
         stdDeviation="0.61875"
         id="feGaussianBlur1059" />
    </filter>
    <linearGradient
       inkscape:collect="always"
       xlink:href="#linearGradient2645-3"
       id="linearGradient1053"
       x1="-127"
       y1="60"
       x2="-72"
       y2="5"
       gradientUnits="userSpaceOnUse"
       gradientTransform="matrix(0.26457812,0,0,0.26457812,34.792023,-0.13493447)" />
  </defs>
  <metadata
     id="metadata23">
    <rdf:RDF>
      <cc:Work
         rdf:about="">
        <dc:format>image/svg+xml</dc:format>
        <dc:type
           rdf:resource="http://purl.org/dc/dcmitype/StillImage" />
        <dc:title />
      </cc:Work>
    </rdf:RDF>
  </metadata>
  <rect
     ry="15"
     y="1.485"
     x="1.485"
     height="55"
     width="55"
     id="rect1055"
     style="opacity:0.3;fill:#141414;fill-opacity:1;stroke-width:2.74436;stroke-linecap:round;filter:url(#filter1057)"
     transform="matrix(0.26457812,0,0,0.26457812,0.79770305,0.79770305)" />
  <rect
     style="fill:url(#linearGradient1053);fill-opacity:1;stroke-width:0.726098;stroke-linecap:round"
     id="rect1045"
     width="14.551796"
     height="14.551796"
     x="1.1906021"
     y="1.1906021"
     ry="3.9686716" />
  <path
     d="m12.09 5.838-0.49094-1.2999s-4.1701-0.24203-6.4669 1.5483c0 0-1.1004 0.91699-0.85586 1.9475 0.24453 1.0305 0.76853 1.1877 1.5283 1.3187 0.7598 0.131 2.4191 0.0262 3.0479-0.0699 0.97958-0.0785 1.7292 0.0524 1.6331 0.43666-0.09607 0.38426-1.1703 0.9432-1.8951 1.0829-0.72486 0.13974-1.6681 0.34934-3.2139 0.11355l0.52252 1.3506s4.4895 0.50639 6.8855-1.7785c0 0 1.2598-1.1529 0-2.4454s-6.0195 0.34932-5.5828-1.1965c0 0 0.41405-1.1517 4.8881-1.0082z"
     fill="#ff7832"
     filter="url(#filter905)"
     id="path35" />
  <path
     d="m12.09 5.838-0.49094-1.2999s-4.1701-0.24203-6.4669 1.5483c0 0-1.1004 0.91699-0.85586 1.9475 0.24453 1.0305 0.76853 1.1877 1.5283 1.3187 0.7598 0.131 2.4191 0.0262 3.0479-0.0699 0.97958-0.0785 1.7292 0.0524 1.6331 0.43666-0.09607 0.38426-1.1703 0.9432-1.8951 1.0829-0.72486 0.13974-1.6681 0.34934-3.2139 0.11355l0.52252 1.3506s4.4895 0.50639 6.8855-1.7785c0 0 1.2598-1.1529 0-2.4454s-6.0195 0.34932-5.5828-1.1965c0 0 0.41405-1.1517 4.8881-1.0082z"
     fill="url(#linearGradient892)"
     id="path37" />
</svg>
