<?xml version="1.0" encoding="UTF-8" standalone="no"?>
<svg xmlns:dc="http://purl.org/dc/elements/1.1/" xmlns:cc="http://creativecommons.org/ns#" xmlns:rdf="http://www.w3.org/1999/02/22-rdf-syntax-ns#" xmlns:svg="http://www.w3.org/2000/svg" xmlns="http://www.w3.org/2000/svg" xmlns:xlink="http://www.w3.org/1999/xlink" xmlns:sodipodi="http://sodipodi.sourceforge.net/DTD/sodipodi-0.dtd" xmlns:inkscape="http://www.inkscape.org/namespaces/inkscape" id="SimpleNote" width="64" height="64" enable-background="new 0 0 1024 1024" image-rendering="optimizeSpeed" version="1.1" viewBox="0 0 64 64" sodipodi:docname="file-manager.svg" inkscape:version="1.0.1 (3bc2e813f5, 2020-09-07)">
  <metadata id="metadata77">
    <rdf:RDF>
      <cc:Work rdf:about="">
        <dc:format>image/svg+xml</dc:format>
        <dc:type rdf:resource="http://purl.org/dc/dcmitype/StillImage" />
        <dc:title />
      </cc:Work>
    </rdf:RDF>
  </metadata>
  <sodipodi:namedview pagecolor="#ffffff" bordercolor="#666666" borderopacity="1" objecttolerance="10" gridtolerance="10" guidetolerance="10" inkscape:pageopacity="0" inkscape:pageshadow="2" inkscape:window-width="2064" inkscape:window-height="1410" id="namedview75" showgrid="false" inkscape:zoom="11.484375" inkscape:cx="32" inkscape:cy="32" inkscape:window-x="96" inkscape:window-y="30" inkscape:window-maximized="1" inkscape:current-layer="SimpleNote" inkscape:document-rotation="0" />
  <defs id="defs30">
    <linearGradient id="linearGradient862-3" x1="7.9373" x2="7.9373" y1="15.081" y2="1.852" gradientTransform="matrix(3.7795 0 0 3.7795 .00014309 .031541)" gradientUnits="userSpaceOnUse">
      <stop stop-color="#f1efeb" offset="0" id="stop25" />
      <stop stop-color="#fdfcfc" offset="1" id="stop27" />
    </linearGradient>
    <linearGradient inkscape:collect="always" xlink:href="#linearGradient4372" id="linearGradient4302" x1="488" y1="514" x2="86" y2="112" gradientUnits="userSpaceOnUse" />
    <linearGradient inkscape:collect="always" id="linearGradient4372">
      <stop style="stop-color:#000000;stop-opacity:1" offset="0" id="stop4374" />
      <stop id="stop4380" offset="0.15026461" style="stop-color:#000000;stop-opacity:0" />
      <stop style="stop-color:#000000;stop-opacity:0.58823532" offset="1" id="stop4376" />
    </linearGradient>
    <filter inkscape:collect="always" style="color-interpolation-filters:sRGB" id="filter4308" x="-0.044689655" width="1.0893793" y="-0.05184" height="1.10368">
      <feGaussianBlur inkscape:collect="always" stdDeviation="8.64" id="feGaussianBlur4310" />
    </filter>
    <filter inkscape:collect="always" style="color-interpolation-filters:sRGB" id="filter4278" x="-0.011172414" width="1.0223448" y="-0.01296" height="1.02592">
      <feGaussianBlur inkscape:collect="always" stdDeviation="2.16" id="feGaussianBlur4280" />
    </filter>
    <clipPath clipPathUnits="userSpaceOnUse" id="clipPath4255">
      <path inkscape:connector-curvature="0" id="path4257" d="M 88.55469,36 C 10.5,35.999999 2.5,36.000001 2.5,113.89844 V 326.10156 C 2.5,404 10.5,412 88.55469,412 H 428.44531 C 506.5,412 514.5,404 514.5,326.10156 V 145.89844 C 514.5,68.000001 506.49923,59.652236 428.44531,60 L 200,60.000001 l -24,-24 z" style="color:black;display:inline;overflow:visible;visibility:visible;fill:#d04616;fill-opacity:1;fill-rule:nonzero;stroke:none;stroke-width:1;marker:none;enable-background:accumulate" sodipodi:nodetypes="ssssssssccs" />
    </clipPath>
    <filter inkscape:collect="always" style="color-interpolation-filters:sRGB" id="filter4242" x="-0.042375557" width="1.0847511" y="-0.055345986" height="1.110692">
      <feGaussianBlur inkscape:collect="always" stdDeviation="9.0401191" id="feGaussianBlur4244" />
    </filter>
    <linearGradient inkscape:collect="always" xlink:href="#linearGradient1769" id="linearGradient933" x1="-8" y1="302" x2="456" y2="302" gradientUnits="userSpaceOnUse" />
    <linearGradient id="linearGradient1769" x1="445.28" x2="445.28" y1="179.28" y2="200.07001" gradientTransform="matrix(1.4723818,0,0,1.4432032,-82.003278,175.71298)" gradientUnits="userSpaceOnUse">
      <stop stop-color="#60c0f0" offset="0" id="stop2-3" />
      <stop stop-color="#83d4fb" offset="1" id="stop4-6" />
    </linearGradient>
  </defs>
  <g transform="scale(3.7796)" shape-rendering="auto" id="g44">
    <path d="m4.3693 0.52916c-2.1142 0-3.8402 1.7835-3.8402 3.9682v8.4675c0 2.1846 1.726 3.9682 3.8402 3.9682h8.1944c2.1142 0 3.8402-1.7835 3.8402-3.9682v-8.4675c0-2.1846-1.726-3.9682-3.8402-3.9682zm0.25704 0.52089h7.6808c1.8443 0 3.3291 1.5342 3.3291 3.44v7.9368c0 1.9058-1.4847 3.44-3.3291 3.44h-7.6808c-1.8443 0-3.3291-1.5342-3.3291-3.44v-7.9368c0-1.9058 1.4847-3.44 3.3291-3.44z" color="#000000" color-rendering="auto" dominant-baseline="auto" enable-background="accumulate" image-rendering="auto" opacity=".01" solid-color="#000000" stop-color="#000000" style="font-feature-settings:normal;font-variant-alternates:normal;font-variant-caps:normal;font-variant-east-asian:normal;font-variant-ligatures:normal;font-variant-numeric:normal;font-variant-position:normal;font-variation-settings:normal;inline-size:0;isolation:auto;mix-blend-mode:normal;shape-margin:0;shape-padding:0;text-decoration-color:#000000;text-decoration-line:none;text-decoration-style:solid;text-indent:0;text-orientation:mixed;text-transform:none;white-space:normal" id="path32" />
    <path d="m4.3587 0.79373c-1.9668 0-3.5639 1.6528-3.5639 3.6876v8.4996c0 2.0348 1.5971 3.6876 3.5639 3.6876h8.2162c1.9668 0 3.5644-1.6528 3.5644-3.6876v-8.4996c0-2.0348-1.5976-3.6876-3.5644-3.6876zm0.27222 0.25631h7.6718c1.8422 0 3.3251 1.5342 3.3251 3.44v7.9368c0 1.9058-1.483 3.44-3.3251 3.44h-7.6718c-1.8422 0-3.3251-1.5342-3.3251-3.44v-7.9368c0-1.9058 1.483-3.44 3.3251-3.44z" color="#000000" color-rendering="auto" dominant-baseline="auto" enable-background="accumulate" image-rendering="auto" opacity=".01" solid-color="#000000" stop-color="#000000" style="font-feature-settings:normal;font-variant-alternates:normal;font-variant-caps:normal;font-variant-east-asian:normal;font-variant-ligatures:normal;font-variant-numeric:normal;font-variant-position:normal;font-variation-settings:normal;inline-size:0;isolation:auto;mix-blend-mode:normal;shape-margin:0;shape-padding:0;text-decoration-color:#000000;text-decoration-line:none;text-decoration-style:solid;text-indent:0;text-orientation:mixed;text-transform:none;white-space:normal" id="path34" />
    <g id="g42">
      <path d="m4.3097 1.0583c-1.8657 0-3.3751 1.5383-3.3751 3.439v8.4675c0 1.9007 1.57 3.439 3.4357 3.439h8.1996c1.8657 0 3.4274-1.5383 3.4274-3.439v-8.4675c0-1.9007-1.51-3.439-3.3756-3.439h-0.09688c1.794 0.086515 3.2138 1.5819 3.2138 3.4318v7.9368c0 1.9058-1.5059 3.44-3.3766 3.44h-7.7905c-1.8707 0-3.3766-1.5342-3.3766-3.44v-7.9368c0-1.8498 1.4199-3.3451 3.2138-3.4318z" color="#000000" color-rendering="auto" dominant-baseline="auto" enable-background="accumulate" image-rendering="auto" opacity=".03" solid-color="#000000" stop-color="#000000" style="font-feature-settings:normal;font-variant-alternates:normal;font-variant-caps:normal;font-variant-east-asian:normal;font-variant-ligatures:normal;font-variant-numeric:normal;font-variant-position:normal;font-variation-settings:normal;inline-size:0;isolation:auto;mix-blend-mode:normal;shape-margin:0;shape-padding:0;text-decoration-color:#000000;text-decoration-line:none;text-decoration-style:solid;text-indent:0;text-orientation:mixed;text-transform:none;white-space:normal" id="path36" />
      <path transform="scale(.26458)" d="m4 46.969v2.0312c0 6.6479 5.8957 12 12.544 12h30.961c6.6479 0 12.495-5.3521 12.495-12v-1.9922c-0.021173 7.1849-5.81 12.963-13 12.963h-29.998c-7.2032 0-13.002-5.7987-13.002-13.002z" color="#000000" color-rendering="auto" dominant-baseline="auto" enable-background="accumulate" image-rendering="auto" opacity=".03" solid-color="#000000" stop-color="#000000" style="font-feature-settings:normal;font-variant-alternates:normal;font-variant-caps:normal;font-variant-east-asian:normal;font-variant-ligatures:normal;font-variant-numeric:normal;font-variant-position:normal;font-variation-settings:normal;inline-size:0;isolation:auto;mix-blend-mode:normal;shape-margin:0;shape-padding:0;text-decoration-color:#000000;text-decoration-line:none;text-decoration-style:solid;text-indent:0;text-orientation:mixed;text-transform:none;white-space:normal" id="path38" />
      <path d="m1.0583 11.906v0.59234c0 1.9386 1.5729 3.4993 3.3318 3.4993h8.1603c1.7589 0 3.3243-1.5608 3.3243-3.4993v-0.58095c-0.0056 2.0952-1.5372 3.7801-3.4395 3.7801h-7.9368c-1.9058 0-3.44-1.691-3.44-3.7915z" color="#000000" color-rendering="auto" dominant-baseline="auto" enable-background="accumulate" image-rendering="auto" opacity=".05" solid-color="#000000" stop-color="#000000" style="font-feature-settings:normal;font-variant-alternates:normal;font-variant-caps:normal;font-variant-east-asian:normal;font-variant-ligatures:normal;font-variant-numeric:normal;font-variant-position:normal;font-variation-settings:normal;inline-size:0;isolation:auto;mix-blend-mode:normal;shape-margin:0;shape-padding:0;text-decoration-color:#000000;text-decoration-line:none;text-decoration-style:solid;text-indent:0;text-orientation:mixed;text-transform:none;white-space:normal" id="path40" />
    </g>
  </g>
  <rect x="4" y="4" width="56" height="56" rx="13.002" ry="13.002" fill="url(#linearGradient862-3)" stroke-width="3.7795" id="rect46" />
  <g id="g1079" transform="matrix(0.08599864,0,0,0.07856614,12.736305,9.8443483)" style="display:inline;enable-background:new">
    <path style="color:black;display:inline;overflow:visible;visibility:visible;opacity:0.3;fill:url(#linearGradient4302);fill-opacity:1;fill-rule:nonzero;stroke:none;stroke-width:1;marker:none;filter:url(#filter4308);enable-background:accumulate" d="M 101.98633,114 C 31.249268,114 24,114.00024 24,184.5957 v 73.25 119.3086 59 C 24,506.74976 31.249268,514 101.98633,514 H 410.01367 C 480.75073,514 488,506.74976 488,436.1543 v -59 -141.3086 -22 C 488,143.25024 480.75003,135.68484 410.01367,136 H 218 l -22,-22 z" id="path4236-1" inkscape:connector-curvature="0" transform="translate(-32,-32)" />
    <path style="color:black;display:inline;overflow:visible;visibility:visible;opacity:0.1;fill:black;fill-opacity:1;fill-rule:nonzero;stroke:none;stroke-width:1;marker:none;filter:url(#filter4278);enable-background:accumulate" d="M 101.98633,114 C 31.249268,114 24,114.00024 24,184.5957 v 73.25 119.3086 59 C 24,506.74976 31.249268,514 101.98633,514 H 410.01367 C 480.75073,514 488,506.74976 488,436.1543 v -59 -141.3086 -22 C 488,143.25024 480.75003,135.68484 410.01367,136 H 218 l -22,-22 z" id="path4236-5" inkscape:connector-curvature="0" transform="translate(-32,-32)" />
    <path sodipodi:nodetypes="ssssssssccs" style="color:black;display:inline;overflow:visible;visibility:visible;fill:#46a2d7;fill-opacity:1;fill-rule:nonzero;stroke:none;stroke-width:1;marker:none;enable-background:accumulate" d="M 69.98706,80.000001 C -0.75,80.000001 -8,80.000002 -8,150.59546 V 343.15454 C -8,413.75 -0.75,421 69.98706,421 H 378.01294 C 448.75,421 456,413.75 456,343.15454 V 179.84546 C 456,109.25 448.7493,101.68484 378.01294,102 H 186 L 164,80.000001 Z" id="path4236" inkscape:connector-curvature="0" />
    <g inkscape:groupmode="maskhelper" id="g4252" clip-path="url(#clipPath4255)" style="fill:#4cace3;fill-opacity:1;stroke-width:1.10345;filter:url(#filter4242)" transform="matrix(0.90625,0,0,0.90625,-10.265625,47.625)">
      <path inkscape:connector-curvature="0" id="path4246" d="M 88.55469,106 C 10.5,106 2.5,114 2.5,191.89844 V 388.10156 C 2.5,466 10.5,474 88.55469,474 H 428.44531 C 506.5,474 514.5,466 514.5,388.10156 V 167.89844 C 514.5,90 506.49907,81.618217 428.44531,82 H 240 l -24,24 z" style="color:black;display:inline;overflow:visible;visibility:visible;fill:#4cace3;fill-opacity:1;fill-rule:nonzero;stroke:none;stroke-width:1.10345;marker:none;enable-background:accumulate" sodipodi:nodetypes="ssssssssccs" />
    </g>
    <path inkscape:connector-curvature="0" id="rect4158" d="M 69.98706,146 C -0.75,146 -8,153.25 -8,223.84546 V 402.15454 C -8,472.75 -0.75,480 69.98706,480 H 378.01294 C 448.75,480 456,472.75 456,402.15454 V 201.84546 C 456,131.25 448.75001,124 378.01294,124 H 207.5 l -22.01563,22 z" style="color:black;display:inline;overflow:visible;visibility:visible;fill:url(#linearGradient933);fill-opacity:1;fill-rule:nonzero;stroke:none;stroke-width:1;marker:none;enable-background:accumulate" sodipodi:nodetypes="ssssssssccs" />
    <path style="color:black;display:inline;overflow:visible;visibility:visible;opacity:0.3;fill:black;fill-opacity:1;fill-rule:nonzero;stroke:none;stroke-width:1;marker:none;enable-background:accumulate" d="m -8,400.1543 v 2 C -8,472.74976 -0.750735,480 69.98633,480 H 378.01367 C 448.75073,480 456,472.74976 456,402.1543 v -2 C 456,470.74976 448.75073,478 378.01367,478 H 69.98633 C -0.750735,478 -8,470.74976 -8,400.1543 Z" id="path4216" inkscape:connector-curvature="0" />
    <path style="color:black;display:inline;overflow:visible;visibility:visible;opacity:0.15;fill:white;fill-opacity:1;fill-rule:nonzero;stroke:none;stroke-width:1;marker:none;enable-background:accumulate" d="m 239.5,92 -22.01562,22 H 101.98633 C 31.249268,114 24,121.25024 24,191.8457 v 2 C 24,123.25024 31.249268,116 101.98633,116 H 217.48438 L 239.5,94 H 410.01367 C 480.75074,94 488,101.25024 488,171.8457 v -2 C 488,99.250243 480.75074,92 410.01367,92 Z" id="path4231" transform="translate(-32,32)" />
    <path style="color:black;display:inline;overflow:visible;visibility:visible;opacity:0.15;fill:white;fill-opacity:1;fill-rule:nonzero;stroke:none;stroke-width:1;marker:none;enable-background:accumulate" d="M 101.98633,48 C 31.249268,48 24,48.000245 24,118.5957 v 2 C 24,50.000245 31.249268,50 101.98633,50 H 196 l 22,22 H 410.01367 C 480.75003,71.68484 488,79.250243 488,149.8457 v -2 C 488,77.250243 480.75003,69.68484 410.01367,70 H 218 L 196,48 Z" transform="translate(-32,32)" id="path4215" />
  </g>
</svg>
