<?xml version="1.0" encoding="UTF-8" standalone="no"?>
<svg
   xmlns:dc="http://purl.org/dc/elements/1.1/"
   xmlns:cc="http://creativecommons.org/ns#"
   xmlns:rdf="http://www.w3.org/1999/02/22-rdf-syntax-ns#"
   xmlns:svg="http://www.w3.org/2000/svg"
   xmlns="http://www.w3.org/2000/svg"
   xmlns:xlink="http://www.w3.org/1999/xlink"
   xmlns:sodipodi="http://sodipodi.sourceforge.net/DTD/sodipodi-0.dtd"
   xmlns:inkscape="http://www.inkscape.org/namespaces/inkscape"
   width="64"
   height="64"
   version="1.1"
   viewBox="0 0 16.933 16.933"
   id="svg20"
   sodipodi:docname="fonts.svg"
   inkscape:version="1.0.1 (3bc2e813f5, 2020-09-07)">
  <sodipodi:namedview
     pagecolor="#ffffff"
     bordercolor="#666666"
     borderopacity="1"
     objecttolerance="10"
     gridtolerance="10"
     guidetolerance="10"
     inkscape:pageopacity="0"
     inkscape:pageshadow="2"
     inkscape:window-width="1603"
     inkscape:window-height="997"
     id="namedview22"
     showgrid="false"
     inkscape:zoom="11.484375"
     inkscape:cx="50.331213"
     inkscape:cy="32"
     inkscape:window-x="1215"
     inkscape:window-y="337"
     inkscape:window-maximized="0"
     inkscape:current-layer="svg20"
     inkscape:document-rotation="0" />
  <defs
     id="defs10">
    <linearGradient
       id="linearGradient1024-6"
       x1="1.3315"
       x2="15.65"
       y1="15.576"
       y2="1.17"
       gradientUnits="userSpaceOnUse">
      <stop
         stop-color="#dddfe1"
         offset="0"
         id="stop5" />
      <stop
         stop-color="#f3f4f6"
         stop-opacity=".99608"
         offset="1"
         id="stop7" />
    </linearGradient>
    <filter
       inkscape:collect="always"
       style="color-interpolation-filters:sRGB"
       id="filter1057-3"
       x="-0.027000001"
       width="1.054"
       y="-0.027000001"
       height="1.054">
      <feGaussianBlur
         inkscape:collect="always"
         stdDeviation="0.61875"
         id="feGaussianBlur1059-6" />
    </filter>
    <linearGradient
       inkscape:collect="always"
       xlink:href="#linearGradient1024-6"
       id="linearGradient1053-7"
       x1="-127"
       y1="60"
       x2="-72"
       y2="5"
       gradientUnits="userSpaceOnUse"
       gradientTransform="matrix(0.26457812,0,0,0.26457812,34.792025,-0.13493425)" />
  </defs>
  <metadata
     id="metadata12">
    <rdf:RDF>
      <cc:Work
         rdf:about="">
        <dc:format>image/svg+xml</dc:format>
        <dc:type
           rdf:resource="http://purl.org/dc/dcmitype/StillImage" />
        <dc:title />
      </cc:Work>
    </rdf:RDF>
  </metadata>
  <rect
     ry="15"
     y="1.485"
     x="1.485"
     height="55"
     width="55"
     id="rect1055-5"
     style="opacity:0.3;fill:#141414;fill-opacity:1;stroke-width:2.74436;stroke-linecap:round;filter:url(#filter1057-3)"
     transform="matrix(0.26457812,0,0,0.26457812,0.79770305,0.79770305)" />
  <rect
     style="fill:url(#linearGradient1053-7);fill-opacity:1;stroke-width:0.726098;stroke-linecap:round"
     id="rect1045-3"
     width="14.551796"
     height="14.551796"
     x="1.1906021"
     y="1.1906021"
     ry="3.9686716" />
  <path
     d="m 7.75569,11.51608 -0.44574,-1.465 h -2.2464 l -0.4471,1.4663 h -1.4065 l 2.1744,-6.186 h 1.5968 l 2.1825,6.186 H 7.75575 M 6.99745,8.95568 C 6.58432,7.62658 6.35194,6.87648 6.29894,6.69978 A 7.083,7.083 0 0 1 6.18886,6.28801 C 6.09645,6.64814 5.83009,7.53691 5.3925,8.95571 h 1.6049 m 5.8273,2.5603 -0.24869,-0.63872 h -0.03262 c -0.21744,0.27179 -0.44031,0.46205 -0.66997,0.56805 -0.22831,0.10464 -0.52592,0.15628 -0.8942,0.15628 -0.45118,0 -0.80859,-0.1291 -1.0695,-0.38731 -0.2582,-0.2582 -0.38731,-0.62648 -0.38731,-1.1048 0,-0.5001 0.17395,-0.86702 0.52185,-1.1035 0.35061,-0.23918 0.87925,-0.371 1.5846,-0.39546 L 12.4456,8.583371 v -0.2052 c 0,-0.477 -0.24462,-0.71618 -0.73384,-0.71618 -0.37508,0 -0.8181,0.11415 -1.3264,0.3411 L 9.96001,7.134711 a 3.8296,3.8296 0 0 1 1.8034,-0.42536 c 0.63192,0 1.1171,0.13726 1.4541,0.41313 0.33702,0.27587 0.50554,0.69307 0.50554,1.2557 v 3.1392 h -0.89692 m -0.38051,-2.1825 -0.49602,0.016308 c -0.37372,0.010872 -0.65231,0.07882 -0.83441,0.20249 -0.18346,0.12367 -0.27451,0.31256 -0.27451,0.56533 0,0.36149 0.20792,0.54359 0.62377,0.54359 0.29762,0 0.53543,-0.08697 0.7121,-0.2582 a 0.89964,0.89964 0 0 0 0.26908,-0.6822 v -0.38731"
     font-size="24px"
     font-weight="700"
     letter-spacing="0"
     opacity="0.6"
     stroke-width="1.0002"
     word-spacing="0"
     id="path18" />
</svg>
