<?xml version="1.0" encoding="UTF-8" standalone="no"?>
<svg
   xmlns:dc="http://purl.org/dc/elements/1.1/"
   xmlns:cc="http://creativecommons.org/ns#"
   xmlns:rdf="http://www.w3.org/1999/02/22-rdf-syntax-ns#"
   xmlns:svg="http://www.w3.org/2000/svg"
   xmlns="http://www.w3.org/2000/svg"
   xmlns:sodipodi="http://sodipodi.sourceforge.net/DTD/sodipodi-0.dtd"
   xmlns:inkscape="http://www.inkscape.org/namespaces/inkscape"
   width="64"
   height="64"
   version="1.1"
   viewBox="0 0 16.933 16.933"
   id="svg25"
   sodipodi:docname="gnome-sound-recorder.svg"
   inkscape:version="1.0.1 (3bc2e813f5, 2020-09-07)">
  <sodipodi:namedview
     pagecolor="#ffffff"
     bordercolor="#666666"
     borderopacity="1"
     objecttolerance="10"
     gridtolerance="10"
     guidetolerance="10"
     inkscape:pageopacity="0"
     inkscape:pageshadow="2"
     inkscape:window-width="2160"
     inkscape:window-height="1277"
     id="namedview27"
     showgrid="false"
     inkscape:zoom="11.484375"
     inkscape:cx="1.6392435"
     inkscape:cy="32"
     inkscape:window-x="0"
     inkscape:window-y="30"
     inkscape:window-maximized="1"
     inkscape:current-layer="svg25" />
  <defs
     id="defs13">
    <linearGradient
       id="linearGradient1449"
       x1="3.464"
       x2="13.856"
       y1="13.408"
       y2="2.9603"
       gradientUnits="userSpaceOnUse"
       gradientTransform="translate(-8.9959717e-4,0.21470042)">
      <stop
         stop-color="#ff503c"
         offset="0"
         id="stop5" />
      <stop
         stop-color="#ff4646"
         offset="1"
         id="stop7" />
    </linearGradient>
    <filter
       id="filter1491"
       x="-.084"
       y="-.084"
       width="1.168"
       height="1.168"
       color-interpolation-filters="sRGB">
      <feGaussianBlur
         stdDeviation="1.4131935"
         id="feGaussianBlur10" />
    </filter>
    <filter
       inkscape:collect="always"
       style="color-interpolation-filters:sRGB"
       id="filter1057"
       x="-0.027000001"
       width="1.054"
       y="-0.027000001"
       height="1.054">
      <feGaussianBlur
         inkscape:collect="always"
         stdDeviation="0.61875"
         id="feGaussianBlur1059" />
    </filter>
  </defs>
  <metadata
     id="metadata15">
    <rdf:RDF>
      <cc:Work
         rdf:about="">
        <dc:format>image/svg+xml</dc:format>
        <dc:type
           rdf:resource="http://purl.org/dc/dcmitype/StillImage" />
        <dc:title />
      </cc:Work>
    </rdf:RDF>
  </metadata>
  <rect
     ry="15"
     y="1.485"
     x="1.485"
     height="55"
     width="55"
     id="rect1055"
     style="opacity:0.3;fill:#141414;fill-opacity:1;stroke-width:2.74436;stroke-linecap:round;filter:url(#filter1057)"
     transform="matrix(0.26457812,0,0,0.26457812,0.79770305,0.79770305)" />
  <rect
     style="fill:#fafafa;fill-opacity:1;stroke-width:0.726098;stroke-linecap:round"
     id="rect1045"
     width="14.551796"
     height="14.551796"
     x="1.1906021"
     y="1.1906021"
     ry="3.9686716" />
  <path
     transform="matrix(0.26458,0,0,0.26458,-29.500598,0.21464675)"
     d="M 143.5,11 A 20.189,20.189 0 0 0 123.311,31.189 20.189,20.189 0 0 0 143.5,51.377 20.189,20.189 0 0 0 163.688,31.189 20.189,20.189 0 0 0 143.5,11 Z m 0,6.75 A 13.439,13.439 0 0 1 156.938,31.189 13.439,13.439 0 0 1 143.5,44.627 13.439,13.439 0 0 1 130.061,31.189 13.439,13.439 0 0 1 143.5,17.75 Z"
     fill="#ff4646"
     filter="url(#filter1491)"
     opacity="0.7"
     id="path21" />
  <circle
     cx="8.4665003"
     cy="8.4665003"
     r="3.5557001"
     fill="none"
     stroke="url(#linearGradient1449)"
     stroke-dashoffset="0.42096"
     stroke-width="3.534"
     id="circle23"
     style="stroke:url(#linearGradient1449)" />
</svg>
