<?xml version="1.0" encoding="UTF-8" standalone="no"?>
<svg
   xmlns:dc="http://purl.org/dc/elements/1.1/"
   xmlns:cc="http://creativecommons.org/ns#"
   xmlns:rdf="http://www.w3.org/1999/02/22-rdf-syntax-ns#"
   xmlns:svg="http://www.w3.org/2000/svg"
   xmlns="http://www.w3.org/2000/svg"
   xmlns:xlink="http://www.w3.org/1999/xlink"
   xmlns:sodipodi="http://sodipodi.sourceforge.net/DTD/sodipodi-0.dtd"
   xmlns:inkscape="http://www.inkscape.org/namespaces/inkscape"
   width="64"
   height="64"
   version="1.1"
   viewBox="0 0 16.933 16.933"
   id="svg38"
   sodipodi:docname="gparted.svg"
   inkscape:version="1.0.1 (3bc2e813f5, 2020-09-07)">
  <sodipodi:namedview
     pagecolor="#ffffff"
     bordercolor="#666666"
     borderopacity="1"
     objecttolerance="10"
     gridtolerance="10"
     guidetolerance="10"
     inkscape:pageopacity="0"
     inkscape:pageshadow="2"
     inkscape:window-width="2160"
     inkscape:window-height="1277"
     id="namedview40"
     showgrid="false"
     inkscape:zoom="11.484375"
     inkscape:cx="54.438359"
     inkscape:cy="32"
     inkscape:window-x="0"
     inkscape:window-y="30"
     inkscape:window-maximized="1"
     inkscape:current-layer="svg38" />
  <defs
     id="defs10">
    <linearGradient
       id="linearGradient4673"
       x1="1.2573"
       x2="15.644"
       y1="15.429"
       y2="1.1082"
       gradientUnits="userSpaceOnUse">
      <stop
         stop-color="#32dcff"
         offset="0"
         id="stop5" />
      <stop
         stop-color="#3296ff"
         offset="1"
         id="stop7" />
    </linearGradient>
    <filter
       inkscape:collect="always"
       style="color-interpolation-filters:sRGB"
       id="filter1057"
       x="-0.027000001"
       width="1.054"
       y="-0.027000001"
       height="1.054">
      <feGaussianBlur
         inkscape:collect="always"
         stdDeviation="0.61875"
         id="feGaussianBlur1059" />
    </filter>
    <linearGradient
       inkscape:collect="always"
       xlink:href="#linearGradient4673"
       id="linearGradient1053"
       x1="-127"
       y1="60"
       x2="-72"
       y2="5"
       gradientUnits="userSpaceOnUse"
       gradientTransform="matrix(0.26457812,0,0,0.26457812,34.792024,-0.13493448)" />
  </defs>
  <metadata
     id="metadata12">
    <rdf:RDF>
      <cc:Work
         rdf:about="">
        <dc:format>image/svg+xml</dc:format>
        <dc:type
           rdf:resource="http://purl.org/dc/dcmitype/StillImage" />
        <dc:title />
      </cc:Work>
    </rdf:RDF>
  </metadata>
  <rect
     ry="15"
     y="1.485"
     x="1.485"
     height="55"
     width="55"
     id="rect1055"
     style="opacity:0.3;fill:#141414;fill-opacity:1;stroke-width:2.74436;stroke-linecap:round;filter:url(#filter1057)"
     transform="matrix(0.26457812,0,0,0.26457812,0.79770305,0.79770305)" />
  <rect
     style="fill:url(#linearGradient1053);fill-opacity:1;stroke-width:0.726098;stroke-linecap:round"
     id="rect1045"
     width="14.551796"
     height="14.551796"
     x="1.1906021"
     y="1.1906021"
     ry="3.9686716" />
  <g
     transform="translate(.0012466 -.2691)"
     id="g36">
    <g
       transform="matrix(.51035 0 0 .51035 -2.994 9.6615)"
       fill="#fff"
       id="g24">
      <circle
         cx="28.377"
         cy="4.0348"
         r="3.44"
         opacity=".25"
         style="paint-order:stroke markers fill"
         id="circle18" />
      <g
         transform="translate(19.91,-284.5)"
         style="paint-order:stroke markers fill"
         id="g22">
        <path
           transform="matrix(.2068 0 0 .2068 1.8486 282.03)"
           d="m29.445 11.615v5.998a14.072 14.072 0 0 0-5.4238 2.2402l-4.2324-4.2344-3.6172 3.6113 4.248 4.248a14.072 14.072 0 0 0-2.2461 5.4082h-6v5.1172h6.0039a14.072 14.072 0 0 0 2.2363 5.4141l-4.2422 4.2422 3.6172 3.6172 4.2539-4.252a14.072 14.072 0 0 0 5.4023 2.2441v6.0059h5.1172v-6.0078a14.072 14.072 0 0 0 5.4141-2.2324l4.2422 4.2422 3.6113-3.6133-4.248-4.252a14.072 14.072 0 0 0 2.25-5.4082h6.002v-5.1172h-6.002a14.072 14.072 0 0 0-2.2344-5.416l4.2383-4.2344-3.6172-3.623-4.2461 4.2461a14.072 14.072 0 0 0-5.4102-2.248v-5.9961h-5.1172zm2.5586 12.15a7.6741 7.6741 0 0 1 7.6738 7.6758 7.6741 7.6741 0 0 1-7.6738 7.6777 7.6741 7.6741 0 0 1-7.6797-7.6777 7.6741 7.6741 0 0 1 7.6797-7.6758z"
           fill="#fff"
           stroke-width="4.8356"
           id="path20" />
      </g>
    </g>
    <g
       transform="matrix(.70879 0 0 .70879 1.1378 1.1211)"
       id="g34">
      <g
         transform="translate(.048526 .0064609)"
         fill="none"
         stroke="#fff"
         stroke-dashoffset=".42096"
         stroke-width="2.3812"
         id="g30">
        <circle
           cx="8.4188"
           cy="8.3271"
           r="4.1537"
           opacity=".2"
           id="circle26" />
        <path
           d="m11.198 11.399a4.1537 4.1537 0 0 1-2.7795 1.067 4.1537 4.1537 0 0 1-4.1537-4.1537 4.1537 4.1537 0 0 1 4.1537-4.1537 4.1537 4.1537 0 0 1 2.7795 1.0671"
           id="path28" />
      </g>
      <circle
         cx="8.4674"
         cy="8.326"
         r="1.9878"
         fill="#fff"
         id="circle32" />
    </g>
  </g>
</svg>
