<?xml version="1.0" encoding="UTF-8" standalone="no"?>
<svg xmlns:dc="http://purl.org/dc/elements/1.1/" xmlns:cc="http://creativecommons.org/ns#" xmlns:rdf="http://www.w3.org/1999/02/22-rdf-syntax-ns#" xmlns:svg="http://www.w3.org/2000/svg" xmlns="http://www.w3.org/2000/svg" xmlns:sodipodi="http://sodipodi.sourceforge.net/DTD/sodipodi-0.dtd" xmlns:inkscape="http://www.inkscape.org/namespaces/inkscape" height="64" width="64" version="1.1" id="svg11" sodipodi:docname="alchemy.svg" inkscape:version="1.0.1 (3bc2e813f5, 2020-09-07)">
  <metadata id="metadata17">
    <rdf:RDF>
      <cc:Work rdf:about="">
        <dc:format>image/svg+xml</dc:format>
        <dc:type rdf:resource="http://purl.org/dc/dcmitype/StillImage" />
        <dc:title />
      </cc:Work>
    </rdf:RDF>
  </metadata>
  <defs id="defs15">
    <style type="text/css" id="style849" />
    <style type="text/css" id="style851" />
    <filter inkscape:collect="always" style="color-interpolation-filters:sRGB" id="filter1057" x="-0.027000001" width="1.054" y="-0.027000001" height="1.054">
      <feGaussianBlur inkscape:collect="always" stdDeviation="0.61875" id="feGaussianBlur1059" />
    </filter>
  </defs>
  <sodipodi:namedview pagecolor="#ffffff" bordercolor="#666666" borderopacity="1" objecttolerance="10" gridtolerance="10" guidetolerance="10" inkscape:pageopacity="0" inkscape:pageshadow="2" inkscape:window-width="2160" inkscape:window-height="1277" id="namedview13" showgrid="false" inkscape:zoom="7.96875" inkscape:cx="22.146999" inkscape:cy="28.525214" inkscape:window-x="0" inkscape:window-y="30" inkscape:window-maximized="1" inkscape:current-layer="svg11" inkscape:document-rotation="0" />
  <linearGradient id="a" gradientTransform="matrix(1.0454546,0,0,1.3529412,-413.1928,-716.94935)" gradientUnits="userSpaceOnUse" x1="409.57144" x2="409.57144" y1="542.79797" y2="507.798">
    <stop offset="0" stop-color="#0bac83" id="stop2" />
    <stop offset="1" stop-color="#10da96" id="stop4" />
  </linearGradient>
  <circle cx="-1369.803" cy="-1258.0385" r="0" fill="#5e4aa6" stroke-width="1.00001" id="circle855" />
  <rect ry="15" y="4.4999995" x="4.4999995" height="55" width="55" id="rect1055" style="opacity:0.3;fill:#141414;fill-opacity:1;stroke-width:2.74436;stroke-linecap:round;filter:url(#filter1057)" />
  <rect style="fill:#4fc26c;fill-opacity:1;stroke-width:2.74436;stroke-linecap:round" id="rect1045" width="54.999996" height="54.999996" x="4.5000019" y="4.5000019" ry="14.999999" />
  <g fill="white" id="g12" transform="matrix(3.779602,0,0,3.779602,-0.00189016,0.02456694)">
    <circle cx="8.467" cy="8.46" r="5.8210001" opacity="0.15" style="paint-order:stroke markers fill" id="circle6" />
    <path d="M 8.467,3.7 A 2.281,2.281 0 0 0 6.184,5.984 2.29,2.29 0 0 0 7.418,8.021 v 4.588 l 1.026,0.617 C 8.453,9.924 8.46,8.288 8.459,8.274 h 0.008 a 2.287,2.287 0 0 0 0,-4.573 z M 8.459,4.377 c 0.375,0 0.677,0.302 0.677,0.677 A 0.675,0.675 0 0 1 8.459,5.731 0.675,0.675 0 0 1 7.783,5.054 c 0,-0.375 0.301,-0.677 0.676,-0.677 z" fill-rule="evenodd" stroke-width="1.112" id="path8" />
    <path d="m 8.444,13.224 1.053,-0.615 v -0.55 l -0.47,-0.502 0.47,-0.416 V 10.984 L 9.023,10.494 9.497,9.987 9.019,9.473 9.497,9.014 V 7.997 C 9.25,8.107 8.845,8.254 8.453,8.248 c 0,0 -0.007,1.656 -0.01,4.976 z" fill-rule="evenodd" opacity="0.6" stroke-width="1.112" id="path10" />
  </g>
</svg>
