<?xml version="1.0" encoding="UTF-8" standalone="no"?>
<svg
   xmlns:dc="http://purl.org/dc/elements/1.1/"
   xmlns:cc="http://creativecommons.org/ns#"
   xmlns:rdf="http://www.w3.org/1999/02/22-rdf-syntax-ns#"
   xmlns:svg="http://www.w3.org/2000/svg"
   xmlns="http://www.w3.org/2000/svg"
   xmlns:xlink="http://www.w3.org/1999/xlink"
   xmlns:sodipodi="http://sodipodi.sourceforge.net/DTD/sodipodi-0.dtd"
   xmlns:inkscape="http://www.inkscape.org/namespaces/inkscape"
   inkscape:version="1.0.1 (3bc2e813f5, 2020-09-07)"
   sodipodi:docname="mpv.svg"
   id="svg27"
   viewBox="0 0 16.933 16.933"
   version="1.1"
   height="64"
   width="64">
  <sodipodi:namedview
     inkscape:current-layer="svg27"
     inkscape:window-maximized="1"
     inkscape:window-y="30"
     inkscape:window-x="0"
     inkscape:cy="23.409755"
     inkscape:cx="39.957612"
     inkscape:zoom="5.9609375"
     showgrid="false"
     id="namedview29"
     inkscape:window-height="1277"
     inkscape:window-width="2160"
     inkscape:pageshadow="2"
     inkscape:pageopacity="0"
     guidetolerance="10"
     gridtolerance="10"
     objecttolerance="10"
     borderopacity="1"
     bordercolor="#666666"
     pagecolor="#ffffff"
     inkscape:document-rotation="0" />
  <metadata
     id="metadata2">
    <rdf:RDF>
      <cc:Work
         rdf:about="">
        <dc:format>image/svg+xml</dc:format>
        <dc:type
           rdf:resource="http://purl.org/dc/dcmitype/StillImage" />
        <dc:title />
      </cc:Work>
    </rdf:RDF>
  </metadata>
  <defs
     id="defs17">
    <filter
       inkscape:collect="always"
       style="color-interpolation-filters:sRGB"
       id="filter1057"
       x="-0.027000001"
       width="1.054"
       y="-0.027000001"
       height="1.054">
      <feGaussianBlur
         inkscape:collect="always"
         stdDeviation="0.61875"
         id="feGaussianBlur1059" />
    </filter>
    <linearGradient
       inkscape:collect="always"
       xlink:href="#linearGradient862-3"
       id="linearGradient1053"
       x1="-127"
       y1="60"
       x2="-72"
       y2="5"
       gradientUnits="userSpaceOnUse"
       gradientTransform="matrix(0.26457812,0,0,0.26457812,34.792023,-0.13493417)" />
    <linearGradient
       id="linearGradient898"
       x1="29.969"
       x2="29.969"
       y1="18.796"
       y2="45.449001"
       gradientTransform="matrix(0.56696445,0,0,0.56696445,-218.63414,-293.02025)"
       gradientUnits="userSpaceOnUse">
      <stop
         stop-color="#cf30ac"
         offset="0"
         id="stop7-3" />
      <stop
         stop-color="#ab31f8"
         offset="1"
         id="stop9-6" />
    </linearGradient>
    <filter
       id="filter1022"
       x="-0.108"
       y="-0.108"
       width="1.216"
       height="1.216"
       color-interpolation-filters="sRGB">
      <feGaussianBlur
         stdDeviation="1.44"
         id="feGaussianBlur12" />
    </filter>
    <linearGradient
       id="linearGradient862-3"
       x1="7.9373002"
       x2="7.9373002"
       y1="15.081"
       y2="1.852"
       gradientTransform="matrix(0.999973,0,0,0.999973,15.669465,-9.1397117)"
       gradientUnits="userSpaceOnUse">
      <stop
         stop-color="#f1efeb"
         offset="0"
         id="stop2" />
      <stop
         stop-color="#fdfcfc"
         offset="1"
         id="stop4-7" />
    </linearGradient>
  </defs>
  <g
     transform="scale(0.26457812)"
     fill="#5e4aa6"
     id="g30">
    <circle
       cx="-1248.7"
       cy="-1241.6"
       r="0"
       id="circle24" />
    <circle
       cx="-1140.3"
       cy="-1301.8"
       r="0"
       id="circle26" />
    <circle
       cx="-1158.1"
       cy="-1246"
       r="0"
       id="circle28" />
  </g>
  <circle
     style="stroke-width:0.264578"
     cx="-306.19626"
     cy="-335.40567"
     r="0"
     fill="#5e4aa6"
     id="circle36" />
  <circle
     style="stroke-width:0.264578"
     cx="-15.280974"
     cy="-0.57754755"
     r="0"
     fill="#5e4aa6"
     fill-rule="evenodd"
     id="circle38" />
  <rect
     transform="scale(0.26457812)"
     ry="15"
     y="4.5"
     x="4.5"
     height="55"
     width="55"
     id="rect1055"
     style="opacity:0.3;fill:#141414;fill-opacity:1;stroke-width:2.74436;stroke-linecap:round;filter:url(#filter1057)" />
  <rect
     style="fill:url(#linearGradient1053);fill-opacity:1.0;stroke-width:0.726098;stroke-linecap:round"
     id="rect1045"
     width="14.551796"
     height="14.551796"
     x="1.1906021"
     y="1.1906021"
     ry="3.9686716" />
  <path
     d="m 30.000214,15.341987 a 16,16 0 0 0 -16,16 16,16 0 0 0 16,16 16,16 0 0 0 16,-16 16,16 0 0 0 -16,-16 z m -4.2598,6.6602 c 0.34816,0.01806 0.67355,0.13305 0.97656,0.34375 l 11.213,7.7266 c 0.3532,0.2488 0.59792,0.57707 0.73437,0.98242 0.13645,0.4054 0.13645,0.81524 0,1.2246 -0.13642,0.40535 -0.38109,0.7337 -0.73828,0.97852 l -11.209,7.7266 c -0.40534,0.27692 -0.84641,0.38832 -1.332,0.32812 -0.48561,-0.0602 -0.88781,-0.27346 -1.2129,-0.63867 -0.32508,-0.36523 -0.49023,-0.79357 -0.49023,-1.2832 v -15.451 c 0,-0.48963 0.16515,-0.91994 0.49023,-1.2852 0.32512,-0.36522 0.72727,-0.57847 1.2129,-0.63867 0.12107,-0.01538 0.23942,-0.01969 0.35547,-0.01367 z"
     filter="url(#filter1022)"
     opacity="0.15"
     stroke-width="0"
     id="path33"
     transform="matrix(0.26457812,0,0,0.26457812,0.52909997,0.17409619)" />
  <path
     d="M 8.4665,4.2332501 A 4.23325,4.23325 0 0 0 4.23325,8.4665002 4.23325,4.23325 0 0 0 8.4665,12.69975 4.23325,4.23325 0 0 0 12.69975,8.4665002 4.23325,4.23325 0 0 0 8.4665,4.2332501 Z M 7.33945,5.9953933 c 0.09212,0.00478 0.178207,0.035202 0.258376,0.090949 l 2.966715,2.0442893 c 0.09345,0.065827 0.158197,0.1526802 0.194299,0.259927 0.0361,0.1072599 0.0361,0.2156946 0,0.3240023 -0.03609,0.1072468 -0.100828,0.1941209 -0.195333,0.2588949 L 7.59785,11.017745 C 7.490606,11.091015 7.373909,11.120486 7.245432,11.104555 7.11695,11.088625 7.010537,11.032205 6.924525,10.935576 6.838515,10.838946 6.794821,10.725615 6.794821,10.59607 V 6.508077 c 0,-0.1295454 0.04369,-0.243396 0.129704,-0.3400359 0.08602,-0.096629 0.19242,-0.1530505 0.320907,-0.1689781 0.03203,-0.00407 0.06334,-0.00521 0.09405,-0.00362 z"
     fill="url(#linearGradient898)"
     stroke-width="0"
     id="path35"
     style="fill:url(#linearGradient898)" />
</svg>
