<?xml version="1.0" encoding="UTF-8" standalone="no"?>
<svg
   xmlns:dc="http://purl.org/dc/elements/1.1/"
   xmlns:cc="http://creativecommons.org/ns#"
   xmlns:rdf="http://www.w3.org/1999/02/22-rdf-syntax-ns#"
   xmlns:svg="http://www.w3.org/2000/svg"
   xmlns="http://www.w3.org/2000/svg"
   xmlns:xlink="http://www.w3.org/1999/xlink"
   xmlns:sodipodi="http://sodipodi.sourceforge.net/DTD/sodipodi-0.dtd"
   xmlns:inkscape="http://www.inkscape.org/namespaces/inkscape"
   width="64"
   height="64"
   version="1.1"
   viewBox="0 0 16.933 16.933"
   id="svg24"
   sodipodi:docname="preferences-system-time.svg"
   inkscape:version="1.0.1 (3bc2e813f5, 2020-09-07)">
  <sodipodi:namedview
     pagecolor="#ffffff"
     bordercolor="#666666"
     borderopacity="1"
     objecttolerance="10"
     gridtolerance="10"
     guidetolerance="10"
     inkscape:pageopacity="0"
     inkscape:pageshadow="2"
     inkscape:window-width="2160"
     inkscape:window-height="1277"
     id="namedview26"
     showgrid="false"
     inkscape:zoom="11.484375"
     inkscape:cx="-10.298643"
     inkscape:cy="32"
     inkscape:window-x="0"
     inkscape:window-y="30"
     inkscape:window-maximized="1"
     inkscape:current-layer="svg24"
     inkscape:document-rotation="0" />
  <defs
     id="defs10">
    <linearGradient
       id="linearGradient1024-6"
       x1="1.3315"
       x2="15.65"
       y1="15.576"
       y2="1.17"
       gradientUnits="userSpaceOnUse">
      <stop
         stop-color="#dddfe1"
         offset="0"
         id="stop5" />
      <stop
         stop-color="#f3f4f6"
         stop-opacity=".99608"
         offset="1"
         id="stop7" />
    </linearGradient>
    <linearGradient
       inkscape:collect="always"
       xlink:href="#linearGradient1024-6"
       id="linearGradient1053"
       x1="-127"
       y1="60"
       x2="-72"
       y2="5"
       gradientUnits="userSpaceOnUse"
       gradientTransform="matrix(0.26457812,0,0,0.26457812,34.792023,-0.13493418)" />
    <filter
       inkscape:collect="always"
       style="color-interpolation-filters:sRGB"
       id="filter1057"
       x="-0.027000001"
       width="1.054"
       y="-0.027000001"
       height="1.054">
      <feGaussianBlur
         inkscape:collect="always"
         stdDeviation="0.61875"
         id="feGaussianBlur1059" />
    </filter>
    <linearGradient
       id="d"
       x1="511.51001"
       x2="515.31"
       y1="983.01001"
       y2="41.047001"
       gradientTransform="matrix(0.03049263,0,0,0.03049263,-20.042515,1.5731294)"
       gradientUnits="userSpaceOnUse">
      <stop
         stop-color="#666"
         offset="0"
         id="stop8" />
      <stop
         stop-color="#4d4d4d"
         offset=".5996"
         id="stop10" />
      <stop
         stop-color="#333"
         offset="1"
         id="stop12" />
    </linearGradient>
    <radialGradient
       id="radialGradient935"
       cx="118.51"
       cy="31.729"
       r="30"
       gradientTransform="matrix(0.2116625,0,0,0.2116625,-32.411014,2.3534232)"
       gradientUnits="userSpaceOnUse">
      <stop
         stop-opacity="0"
         offset="0"
         id="stop25" />
      <stop
         stop-opacity=".15"
         offset=".83955"
         id="stop27" />
      <stop
         stop-opacity=".35"
         offset="1"
         id="stop29" />
    </radialGradient>
  </defs>
  <metadata
     id="metadata12">
    <rdf:RDF>
      <cc:Work
         rdf:about="">
        <dc:format>image/svg+xml</dc:format>
        <dc:type
           rdf:resource="http://purl.org/dc/dcmitype/StillImage" />
        <dc:title />
      </cc:Work>
    </rdf:RDF>
  </metadata>
  <rect
     ry="15"
     y="1.485"
     x="1.485"
     height="55"
     width="55"
     id="rect1055"
     style="opacity:0.3;fill:#141414;fill-opacity:1;stroke-width:2.74436;stroke-linecap:round;filter:url(#filter1057)"
     transform="matrix(0.26457812,0,0,0.26457812,0.79770305,0.79770305)" />
  <rect
     style="fill:url(#linearGradient1053);fill-opacity:1;stroke-width:0.726098;stroke-linecap:round"
     id="rect1045"
     width="14.551796"
     height="14.551796"
     x="1.1906021"
     y="1.1906021"
     ry="3.9686716" />
  <g
     fill="#5e4aa6"
     id="g30"
     transform="matrix(0.26457812,0,0,0.26457812,-17.923867,0.68949064)">
    <circle
       cx="-1248.7"
       cy="-1241.6"
       r="0"
       id="circle24" />
    <circle
       cx="-1140.3"
       cy="-1301.8"
       r="0"
       id="circle26" />
    <circle
       cx="-1158.1"
       cy="-1246"
       r="0"
       id="circle28" />
  </g>
  <circle
     style="stroke-width:0.264578"
     cx="-324.12012"
     cy="-334.71619"
     r="0"
     fill="#5e4aa6"
     id="circle36" />
  <circle
     style="stroke-width:0.264578"
     cx="-33.204842"
     cy="0.11194306"
     r="0"
     fill="#5e4aa6"
     fill-rule="evenodd"
     id="circle38" />
  <g
     id="g920"
     transform="matrix(0.8333333,0,0,0.83333334,14.572242,0.90875906)">
    <path
       class="shp36"
       d="m -7.3268905,15.419164 c 3.5067185,0 6.34987499,-2.843156 6.34987499,-6.3498749 0,-3.5067185 -2.84315649,-6.349875 -6.34987499,-6.349875 -3.5067185,0 -6.3498755,2.8431565 -6.3498755,6.349875 0,3.5067189 2.843157,6.3498749 6.3498755,6.3498749 z"
       fill="url(#d)"
       stroke-width="0.478198"
       id="path46"
       style="fill:url(#d)" />
    <path
       class="shp36"
       d="m -7.3268905,15.419164 c 3.5067185,0 6.34987499,-2.843156 6.34987499,-6.3498749 0,-3.5067185 -2.84315649,-6.349875 -6.34987499,-6.349875 -3.5067185,0 -6.3498755,2.8431565 -6.3498755,6.349875 0,3.5067189 2.843157,6.3498749 6.3498755,6.3498749 z"
       fill="url(#radialGradient935)"
       stroke-width="0.478198"
       id="path48"
       style="fill:url(#radialGradient935)" />
    <g
       fill="#ffffff"
       id="g80"
       transform="matrix(0.26457812,0,0,0.26457812,-15.79392,0.60278915)">
      <path
         d="m 32.567,31.992 12.446,12.446 -0.56845,0.56542 -12.446,-12.446 z"
         fill="#d35f5f"
         stroke-width="3.0237"
         id="path50" />
      <path
         d="m 31.998,18.398 a 0.80128,0.80128 0 0 0 -0.8016,0.8016 0.80128,0.80128 0 0 0 0.0031,0.05625 v 12.733 a 0.80128,0.80128 0 0 0 0.8016,0.79218 0.80128,0.80128 0 0 0 0.8016,-0.8016 0.80128,0.80128 0 0 0 -0.0031,-0.05625 v -12.723 a 0.80128,0.80128 0 0 0 0,-0.0094 0.80128,0.80128 0 0 0 -0.8016,-0.79218 z"
         stroke-width="3.0237"
         id="path52" />
      <g
         stroke-linecap="round"
         stroke-linejoin="round"
         stroke-width="4.1252"
         id="g78">
        <rect
           x="31.5"
           y="10"
           width="1"
           height="4"
           ry="0.53179002"
           id="rect54" />
        <rect
           x="31.5"
           y="50"
           width="1"
           height="4"
           ry="0.53179002"
           id="rect56" />
        <rect
           transform="rotate(30)"
           x="43.213001"
           y="-10.287"
           width="1"
           height="4"
           ry="0.53179002"
           id="rect58" />
        <rect
           transform="rotate(30)"
           x="43.213001"
           y="29.712999"
           width="1"
           height="4"
           ry="0.53179002"
           id="rect60" />
        <rect
           transform="rotate(60)"
           x="43.213001"
           y="-33.713001"
           width="1"
           height="4"
           ry="0.53179002"
           id="rect62" />
        <rect
           transform="rotate(60)"
           x="43.213001"
           y="6.2872"
           width="1"
           height="4"
           ry="0.53179002"
           id="rect64" />
        <rect
           transform="rotate(90)"
           x="31.5"
           y="-54"
           width="1"
           height="4"
           ry="0.53179002"
           id="rect66" />
        <rect
           transform="rotate(90)"
           x="31.5"
           y="-14"
           width="1"
           height="4"
           ry="0.53179002"
           id="rect68" />
        <rect
           transform="rotate(120)"
           x="11.213"
           y="-65.712997"
           width="1"
           height="4"
           ry="0.53179002"
           id="rect70" />
        <rect
           transform="rotate(120)"
           x="11.213"
           y="-25.712999"
           width="1"
           height="4"
           ry="0.53179002"
           id="rect72" />
        <rect
           transform="rotate(150)"
           x="-12.213"
           y="-65.712997"
           width="1"
           height="4"
           ry="0.53179002"
           id="rect74" />
        <rect
           transform="rotate(150)"
           x="-12.213"
           y="-25.712999"
           width="1"
           height="4"
           ry="0.53179002"
           id="rect76" />
      </g>
    </g>
  </g>
</svg>
