<?xml version="1.0" encoding="UTF-8" standalone="no"?>
<svg xmlns:dc="http://purl.org/dc/elements/1.1/" xmlns:cc="http://creativecommons.org/ns#" xmlns:rdf="http://www.w3.org/1999/02/22-rdf-syntax-ns#" xmlns:svg="http://www.w3.org/2000/svg" xmlns="http://www.w3.org/2000/svg" xmlns:xlink="http://www.w3.org/1999/xlink" xmlns:sodipodi="http://sodipodi.sourceforge.net/DTD/sodipodi-0.dtd" xmlns:inkscape="http://www.inkscape.org/namespaces/inkscape" width="64" height="64" version="1.1" viewBox="0 0 16.933 16.933" id="svg24" sodipodi:docname="preferences-system.svg" inkscape:version="1.0.1 (3bc2e813f5, 2020-09-07)">
  <sodipodi:namedview pagecolor="#ffffff" bordercolor="#666666" borderopacity="1" objecttolerance="10" gridtolerance="10" guidetolerance="10" inkscape:pageopacity="0" inkscape:pageshadow="2" inkscape:window-width="2160" inkscape:window-height="1277" id="namedview26" showgrid="false" inkscape:zoom="11.484375" inkscape:cx="12.331248" inkscape:cy="32" inkscape:window-x="0" inkscape:window-y="30" inkscape:window-maximized="1" inkscape:current-layer="svg24" inkscape:document-rotation="0" />
  <defs id="defs10">
    <filter inkscape:collect="always" style="color-interpolation-filters:sRGB" id="filter1057" x="-0.027000001" width="1.054" y="-0.027000001" height="1.054">
      <feGaussianBlur inkscape:collect="always" stdDeviation="0.61875" id="feGaussianBlur1059" />
    </filter>
    <linearGradient inkscape:collect="always" xlink:href="#linearGradient1024-6" id="linearGradient1053" x1="-127" y1="60" x2="-72" y2="5" gradientUnits="userSpaceOnUse" gradientTransform="matrix(0.26457812,0,0,0.26457812,34.792023,-0.13493423)" />
    <linearGradient id="linearGradient1024-6" x1="1.3315001" x2="15.65" y1="15.576" y2="1.17" gradientUnits="userSpaceOnUse">
      <stop stop-color="#dddfe1" offset="0" id="stop5-6" />
      <stop stop-color="#f3f4f6" stop-opacity=".99608" offset="1" id="stop7-7" />
    </linearGradient>
  </defs>
  <metadata id="metadata12">
    <rdf:RDF>
      <cc:Work rdf:about="">
        <dc:format>image/svg+xml</dc:format>
        <dc:type rdf:resource="http://purl.org/dc/dcmitype/StillImage" />
        <dc:title />
      </cc:Work>
    </rdf:RDF>
  </metadata>
  <rect ry="15" y="1.485" x="1.485" height="55" width="55" id="rect1055" style="opacity:0.3;fill:#141414;fill-opacity:1;stroke-width:2.74436;stroke-linecap:round;filter:url(#filter1057)" transform="matrix(0.26457812,0,0,0.26457812,0.79770305,0.79770305)" />
  <rect style="fill:url(#linearGradient1053);fill-opacity:1.0;stroke-width:0.726098;stroke-linecap:round" id="rect1045" width="14.551796" height="14.551796" x="1.1906021" y="1.1906021" ry="3.9686716" />
  <circle style="fill:black;fill-opacity:0.41995943;stroke-width:0.355002" id="path861" cx="8.4665003" cy="8.4665003" r="5.9379268" />
  <circle cx="8.467432" cy="8.3259172" r="2.6402786" id="circle18" style="fill:#FFFFFF;fill-opacity:0.25;stroke-width:0;stroke-miterlimit:4;stroke-dasharray:none" />
  <path d="M 13.752184,8.2988831 C 13.726837,8.0491338 13.515402,8.0531394 12.994376,7.9722944 A 4.5457888,4.5583616 30 0 0 12.926112,7.463502 C 13.464048,7.2292875 13.65035,7.1494106 13.575366,6.9399744 13.490277,6.7022873 13.285113,6.7595359 12.753237,6.8063893 A 4.5457888,4.5583616 30 0 0 12.562682,6.3427581 c 0.406476,-0.33632 0.590314,-0.4403214 0.484251,-0.6679126 -0.0938,-0.2012941 -0.282534,-0.1279173 -0.827536,0.083 A 4.5457888,4.5583616 30 0 0 11.909505,5.3521744 C 12.212306,4.9262613 12.361469,4.7775513 12.200739,4.5860186 12.059306,4.417489 11.896278,4.5352702 11.434583,4.8728273 A 4.5457888,4.5583616 30 0 0 11.034822,4.5668578 c 0.170445,-0.493856 0.27152,-0.6787754 0.06335,-0.8172261 -0.1808,-0.1202429 -0.304913,0.036011 -0.64239,0.47638 A 4.5457888,4.5583616 30 0 0 9.9597417,4.0241593 C 10.016538,3.5127518 10.072416,3.3106078 9.840399,3.2221462 9.6337691,3.1433681 9.5493659,3.3269548 9.3075425,3.852743 A 4.5457888,4.5583616 30 0 0 8.7805699,3.783495 C 8.7117619,3.2797819 8.7149499,3.0717539 8.4696971,3.0428869 8.249217,3.0169319 8.2131132,3.2158095 8.1062704,3.7898819 A 4.5457888,4.5583616 30 0 0 7.6239812,3.8556929 C 7.3901263,3.370738 7.3353872,3.1642439 7.086699,3.2128248 6.8697745,3.2551923 6.8951991,3.4556516 6.9678467,4.0290702 A 4.5457888,4.5583616 30 0 0 6.4919445,4.2250285 c -0.352488,-0.4165087 -0.45649,-0.6042947 -0.686596,-0.4945601 -0.201525,0.096093 -0.1246,0.2840678 0.0938,0.8339227 l 0.09086,-0.051075 A 4.5457888,4.5583616 30 0 0 5.5244165,4.8625105 C 5.0855785,4.5680828 4.9326695,4.4209067 4.7445055,4.5874699 c -0.162899,0.144209 -0.04357,0.3044105 0.297119,0.7455114 a 4.5457888,4.5583616 30 0 0 -0.31776,0.4125354 c -0.553954,-0.2072134 -0.743399,-0.2804972 -0.835406,-0.077106 -0.103293,0.2283505 0.08155,0.3313411 0.490134,0.6615508 a 4.5457888,4.5583616 30 0 0 -0.200869,0.4847282 c -0.560164,-0.075585 -0.759291,-0.1005465 -0.802994,0.1139389 -0.05019,0.246317 0.153395,0.3047374 0.628133,0.5377851 a 4.5457888,4.5583616 30 0 0 -0.07023,0.5063533 c -0.568488,0.083302 -0.76774,0.1132122 -0.75044,0.3329757 0.01966,0.2495079 0.230885,0.2505942 0.746517,0.3423045 a 4.5457888,4.5583616 30 0 0 0.06827,0.525489 c -0.510377,0.2144276 -0.692706,0.2952827 -0.622249,0.5004441 0.08022,0.2336664 0.283389,0.1863704 0.790698,0.1468443 a 4.5457888,4.5583616 30 0 0 0.186134,0.4626254 c -0.433859,0.371122 -0.585712,0.502506 -0.454277,0.678726 0.146766,0.1968 0.325331,0.09237 0.789717,-0.09773 a 4.5457888,4.5583616 30 0 0 0.324149,0.427774 c -0.3286,0.464109 -0.443791,0.628635 -0.273557,0.767136 0.190748,0.155188 0.338734,0.0097 0.744053,-0.289273 a 4.5457888,4.5583616 30 0 0 0.430716,0.327092 c -0.21021,0.506705 -0.281981,0.692253 -0.0884,0.788258 0.221519,0.109841 0.332347,-0.06687 0.665951,-0.452315 a 4.5457888,4.5583616 30 0 0 0.4734382,0.193011 c -0.060407,0.558832 -0.079009,0.758185 0.1360417,0.796104 0.2442199,0.04306 0.3002112,-0.158348 0.513218,-0.625191 a 4.5457888,4.5583616 30 0 0 0.513218,0.06777 c 0.088067,0.566025 0.1200398,0.764774 0.3393556,0.745513 0.249083,-0.02186 0.2485424,-0.232623 0.3354399,-0.747976 a 4.5457888,4.5583616 30 0 0 0.5092953,-0.06925 c 0.23948,0.520284 0.324728,0.702689 0.5304175,0.62421 0.2310893,-0.08818 0.1765663,-0.289574 0.119833,-0.796606 a 4.5457888,4.5583616 30 0 0 0.4837473,-0.201358 c 0.353394,0.456867 0.47716,0.616792 0.66057,0.493579 0.211104,-0.141817 0.103056,-0.326639 -0.07514,-0.839328 a 4.5457888,4.5583616 30 0 0 0.403207,-0.311376 c 0.481887,0.334861 0.647419,0.451285 0.786297,0.277479 0.155744,-0.194922 0.0041,-0.33989 -0.307453,-0.756323 a 4.5457888,4.5583616 30 0 0 0.313815,-0.415 c 0.539168,0.210577 0.727508,0.284168 0.821652,0.08447 v -5.03e-4 c 0.10634,-0.227033 -0.0773,-0.332246 -0.482767,-0.669899 a 4.5457888,4.5583616 30 0 0 0.191538,-0.4719516 c 0.57495,0.075632 0.775736,0.1021103 0.819187,-0.1149221 C 13.624795,9.4460322 13.41734,9.3911347 12.928988,9.152379 A 4.5457888,4.5583616 30 0 0 12.99578,8.6509542 C 13.574577,8.552799 13.774583,8.520203 13.752103,8.2988177 Z m -1.599576,1.1207313 c 0.02181,0.1592359 -0.07745,0.4120329 -0.224443,0.6767646 -0.244966,0.441201 -0.622575,0.914865 -0.793162,1.041171 -0.647243,0.604571 -1.4501359,1.045722 -2.7403474,1.071144 -0.2403022,0.0048 -0.4580238,-0.01781 -0.6360031,-0.07416 C 7.572682,12.073244 7.3869027,11.949077 7.2965049,11.753908 7.2284559,11.59209 7.1800866,11.412333 7.2572149,11.245116 7.49625,10.724154 7.9092359,10.068965 8.2203099,9.5433751 8.2726777,9.4549588 8.3576793,9.3906695 8.4005522,9.3813054 8.5897564,9.281634 8.8657928,9.3005559 9.0272264,9.1607926 9.3175302,8.9564534 9.2742549,8.7805939 9.5586245,8.7349801 c 0.6322815,-0.021384 1.2717295,-0.025812 1.8947575,-0.00933 0.432325,9.304e-4 0.68652,0.3117529 0.699345,0.6939633 z m -0.02161,-2.2409849 c 0.0073,0.1324158 -0.01432,0.2707659 -0.07956,0.3923943 -0.01242,0.023172 -0.02652,0.045473 -0.04224,0.067284 -0.107592,0.1387021 -0.240284,0.2690057 -0.423826,0.2838666 -0.571228,0.047387 -1.344651,0.00919 -1.9551567,-0.00393 C 9.5274769,7.9160567 9.4295656,7.8734075 9.4003718,7.8406481 9.2206776,7.7247101 9.1019208,7.4751343 8.9009083,7.4030675 8.5804048,7.2504197 8.4486177,7.3745425 8.2693308,7.149149 7.9403785,6.6087237 7.622641,6.053362 7.331281,5.5024258 7.1199237,5.1252697 7.2658426,4.7513573 7.592567,4.5526079 c 0.3414497,-0.2590732 1.6864027,-0.094964 1.9964206,0.04371 0.8444084,0.2672455 1.6229604,0.7500879 2.2783004,1.8618423 0.122056,0.2070499 0.20878,0.408085 0.247034,0.5908167 0.0083,0.042026 0.01425,0.085517 0.0167,0.1296548 z M 8.9495999,8.3263922 A 0.48203768,0.48203768 0 0 1 8.4678137,8.8081784 0.48203768,0.48203768 0 0 1 7.9855246,8.3263922 0.48203768,0.48203768 0 0 1 8.4678137,7.844103 0.48203768,0.48203768 0 0 1 8.9495999,8.3263922 Z M 7.5700468,8.910822 c 0.00181,0.048106 -0.00701,0.1014643 -0.033396,0.1684542 C 7.384868,9.3568062 7.2284182,9.6337327 7.0686191,9.9073147 6.9088024,10.180897 6.7456765,10.450808 6.5799435,10.714709 c -0.220923,0.371625 -0.617798,0.432074 -0.953263,0.248508 -0.395085,-0.166156 -0.925703,-1.412595 -0.96063,-1.7503482 -0.190756,-0.8649019 -0.16169,-1.7805471 0.473438,-2.9040445 0.118279,-0.209235 0.248866,-0.3852781 0.387993,-0.509773 0.147451,-0.1288552 0.348818,-0.2254036 0.56283,-0.2038162 0.173911,0.023825 0.353092,0.073902 0.457722,0.2254236 0.3266645,0.4709989 0.6799828,1.1600839 0.9738825,1.6953545 0.049459,0.090078 0.06141,0.1960512 0.047638,0.2377021 -0.010559,0.2135877 -0.1667544,0.4416039 -0.1286742,0.651719 0.021042,0.2654099 0.1237205,0.3610379 0.1291645,0.5053726 z" fill="#ffffff" image-rendering="optimizeSpeed" stroke-width="0.24171" id="path20" />
</svg>
