<?xml version="1.0" encoding="UTF-8" standalone="no"?>
<svg
   xmlns:dc="http://purl.org/dc/elements/1.1/"
   xmlns:cc="http://creativecommons.org/ns#"
   xmlns:rdf="http://www.w3.org/1999/02/22-rdf-syntax-ns#"
   xmlns:svg="http://www.w3.org/2000/svg"
   xmlns="http://www.w3.org/2000/svg"
   xmlns:xlink="http://www.w3.org/1999/xlink"
   xmlns:sodipodi="http://sodipodi.sourceforge.net/DTD/sodipodi-0.dtd"
   xmlns:inkscape="http://www.inkscape.org/namespaces/inkscape"
   inkscape:version="1.0.1 (3bc2e813f5, 2020-09-07)"
   sodipodi:docname="mpv.svg"
   id="svg27"
   viewBox="0 0 16.933 16.933"
   version="1.1"
   height="64"
   width="64">
  <sodipodi:namedview
     inkscape:current-layer="svg27"
     inkscape:window-maximized="1"
     inkscape:window-y="30"
     inkscape:window-x="0"
     inkscape:cy="23.409755"
     inkscape:cx="39.957612"
     inkscape:zoom="5.9609375"
     showgrid="false"
     id="namedview29"
     inkscape:window-height="1277"
     inkscape:window-width="2160"
     inkscape:pageshadow="2"
     inkscape:pageopacity="0"
     guidetolerance="10"
     gridtolerance="10"
     objecttolerance="10"
     borderopacity="1"
     bordercolor="#666666"
     pagecolor="#ffffff"
     inkscape:document-rotation="0" />
  <metadata
     id="metadata2">
    <rdf:RDF>
      <cc:Work
         rdf:about="">
        <dc:format>image/svg+xml</dc:format>
        <dc:type
           rdf:resource="http://purl.org/dc/dcmitype/StillImage" />
        <dc:title />
      </cc:Work>
    </rdf:RDF>
  </metadata>
  <defs
     id="defs17">
    <filter
       inkscape:collect="always"
       style="color-interpolation-filters:sRGB"
       id="filter1057"
       x="-0.027000001"
       width="1.054"
       y="-0.027000001"
       height="1.054">
      <feGaussianBlur
         inkscape:collect="always"
         stdDeviation="0.61875"
         id="feGaussianBlur1059" />
    </filter>
    <linearGradient
       inkscape:collect="always"
       xlink:href="#linearGradient862"
       id="linearGradient1053"
       x1="-127"
       y1="60"
       x2="-72"
       y2="5"
       gradientUnits="userSpaceOnUse"
       gradientTransform="matrix(0.26457812,0,0,0.26457812,34.792023,-0.13493417)" />
    <linearGradient
       id="linearGradient921"
       x1="1643.1"
       x2="1643.1"
       y1="1003"
       y2="2366.7"
       gradientTransform="matrix(0.00561915,0,0,0.00561915,-0.551498,-0.61451319)"
       gradientUnits="userSpaceOnUse">
      <stop
         stop-color="#fff"
         offset="0"
         id="stop7-36" />
      <stop
         stop-color="#bddcff"
         offset="1"
         id="stop9-7" />
    </linearGradient>
    <filter
       id="filter971"
       x="-0.108"
       y="-0.108"
       width="1.216"
       height="1.216"
       color-interpolation-filters="sRGB">
      <feGaussianBlur
         stdDeviation="0.42861633"
         id="feGaussianBlur12-5" />
    </filter>
    <linearGradient
       id="linearGradient862"
       x1="7.9373002"
       x2="7.9373002"
       y1="15.081"
       y2="1.852"
       gradientUnits="userSpaceOnUse"
       gradientTransform="translate(23.633862,-1.786541)">
      <stop
         stop-color="#0075b0"
         offset="0"
         id="stop2-3" />
      <stop
         stop-color="#33d4ff"
         offset="1"
         id="stop4-5" />
    </linearGradient>
  </defs>
  <g
     transform="scale(0.26457812)"
     fill="#5e4aa6"
     id="g30">
    <circle
       cx="-1248.7"
       cy="-1241.6"
       r="0"
       id="circle24" />
    <circle
       cx="-1140.3"
       cy="-1301.8"
       r="0"
       id="circle26" />
    <circle
       cx="-1158.1"
       cy="-1246"
       r="0"
       id="circle28" />
  </g>
  <circle
     style="stroke-width:0.264578"
     cx="-306.19626"
     cy="-335.40567"
     r="0"
     fill="#5e4aa6"
     id="circle36" />
  <circle
     style="stroke-width:0.264578"
     cx="-15.280974"
     cy="-0.57754755"
     r="0"
     fill="#5e4aa6"
     fill-rule="evenodd"
     id="circle38" />
  <rect
     transform="scale(0.26457812)"
     ry="15"
     y="4.5"
     x="4.5"
     height="55"
     width="55"
     id="rect1055"
     style="opacity:0.3;fill:#141414;fill-opacity:1;stroke-width:2.74436;stroke-linecap:round;filter:url(#filter1057)" />
  <rect
     style="fill:url(#linearGradient1053);fill-opacity:1.0;stroke-width:0.726098;stroke-linecap:round"
     id="rect1045"
     width="14.551796"
     height="14.551796"
     x="1.1906021"
     y="1.1906021"
     ry="3.9686716" />
  <path
     d="m 8.4427002,3.7041076 a 4.7624,4.7624 0 0 0 -4.7386,4.7624001 4.7624,4.7624 0 0 0 4.7624,4.7624003 A 4.7624,4.7624 0 0 0 13.2289,8.4665077 4.7624,4.7624 0 0 0 8.4665002,3.7041076 a 4.7624,4.7624 0 0 0 -0.02377,0 z m -1.1033,2.2913001 c 0.09211,0.00478 0.17821,0.035202 0.25838,0.090949 l 2.9666998,2.0443 c 0.09345,0.065827 0.1582,0.15268 0.1943,0.25993 0.0361,0.10726 0.0361,0.2157 0,0.324 -0.03609,0.10725 -0.10083,0.19412 -0.19533,0.25889 L 7.5977502,11.017776 c -0.10724,0.07327 -0.22394,0.10274 -0.35243,0.08681 -0.12848,-0.01593 -0.23489,-0.07235 -0.3209,-0.16898 -0.08601,-0.09663 -0.12971,-0.20996 -0.12971,-0.33951 V 6.5080967 c 0,-0.12954 0.04369,-0.2434 0.12971,-0.34002 0.08602,-0.09663 0.19242,-0.15305 0.3209,-0.16898 0.03203,-0.00407 0.06334,-0.00521 0.09405,-0.00362 z"
     filter="url(#filter971)"
     opacity="0.15"
     stroke-linecap="round"
     stroke-linejoin="round"
     stroke-width="1.0462"
     id="path31" />
  <path
     d="M 8.442688,3.7040674 A 4.7624401,4.7624401 0 0 0 3.70406,8.4665075 4.7624401,4.7624401 0 0 0 8.4665,13.228947 4.7624401,4.7624401 0 0 0 13.22894,8.4665075 4.7624401,4.7624401 0 0 0 8.4665,3.7040674 a 4.7624401,4.7624401 0 0 0 -0.02377,0 z M 7.339416,5.9953833 c 0.09212,0.00478 0.178207,0.035202 0.258378,0.090949 l 2.966736,2.0443041 c 0.09345,0.065828 0.1582,0.1526812 0.194299,0.2599287 0.0361,0.1072608 0.0361,0.2156963 0,0.3240048 -0.03609,0.1072475 -0.100834,0.1941223 -0.195334,0.2588968 L 7.597817,11.01777 C 7.490573,11.09104 7.373874,11.120514 7.245397,11.10458 7.116914,11.08865 7.0105,11.03223 6.924488,10.935601 6.838478,10.838971 6.794783,10.725638 6.794783,10.596092 V 6.5080703 c 0,-0.1295462 0.04369,-0.2433976 0.129705,-0.3400382 0.08602,-0.09663 0.192421,-0.1530515 0.320909,-0.1689791 0.03203,-0.00407 0.06335,-0.00521 0.09405,-0.00362 z"
     fill="url(#linearGradient921)"
     stroke-linecap="round"
     stroke-linejoin="round"
     stroke-width="1.04623"
     id="path33-6"
     style="fill:url(#linearGradient921)" />
</svg>
