<?xml version="1.0" encoding="UTF-8" standalone="no"?>
<svg
   xmlns:dc="http://purl.org/dc/elements/1.1/"
   xmlns:cc="http://creativecommons.org/ns#"
   xmlns:rdf="http://www.w3.org/1999/02/22-rdf-syntax-ns#"
   xmlns:svg="http://www.w3.org/2000/svg"
   xmlns="http://www.w3.org/2000/svg"
   xmlns:xlink="http://www.w3.org/1999/xlink"
   xmlns:sodipodi="http://sodipodi.sourceforge.net/DTD/sodipodi-0.dtd"
   xmlns:inkscape="http://www.inkscape.org/namespaces/inkscape"
   width="64"
   height="64"
   version="1.1"
   viewBox="0 0 16.933 16.933"
   id="svg42"
   sodipodi:docname="system-search.svg"
   inkscape:version="1.0.1 (3bc2e813f5, 2020-09-07)">
  <sodipodi:namedview
     pagecolor="#ffffff"
     bordercolor="#666666"
     borderopacity="1"
     objecttolerance="10"
     gridtolerance="10"
     guidetolerance="10"
     inkscape:pageopacity="0"
     inkscape:pageshadow="2"
     inkscape:window-width="2160"
     inkscape:window-height="1277"
     id="namedview44"
     showgrid="false"
     inkscape:zoom="11.484375"
     inkscape:cx="2.010074"
     inkscape:cy="32"
     inkscape:window-x="0"
     inkscape:window-y="30"
     inkscape:window-maximized="1"
     inkscape:current-layer="svg42" />
  <metadata
     id="metadata2">
    <rdf:RDF>
      <cc:Work
         rdf:about="">
        <dc:format>image/svg+xml</dc:format>
        <dc:type
           rdf:resource="http://purl.org/dc/dcmitype/StillImage" />
        <dc:title />
      </cc:Work>
    </rdf:RDF>
  </metadata>
  <defs
     id="defs16">
    <style
       type="text/css"
       id="style4" />
    <linearGradient
       id="linearGradient4673-7"
       x1="1.2573"
       x2="15.644"
       y1="15.429"
       y2="1.1082"
       gradientTransform="translate(-.00084544 .21466)"
       gradientUnits="userSpaceOnUse">
      <stop
         stop-color="#32dcff"
         offset="0"
         id="stop9" />
      <stop
         stop-color="#3296ff"
         offset="1"
         id="stop11" />
    </linearGradient>
    <style
       type="text/css"
       id="style14" />
    <filter
       inkscape:collect="always"
       style="color-interpolation-filters:sRGB"
       id="filter1057"
       x="-0.027000001"
       width="1.054"
       y="-0.027000001"
       height="1.054">
      <feGaussianBlur
         inkscape:collect="always"
         stdDeviation="0.61875"
         id="feGaussianBlur1059" />
    </filter>
    <linearGradient
       inkscape:collect="always"
       xlink:href="#linearGradient4673-7"
       id="linearGradient1053"
       x1="-127"
       y1="60"
       x2="-72"
       y2="5"
       gradientUnits="userSpaceOnUse"
       gradientTransform="matrix(0.26457812,0,0,0.26457812,34.792023,-0.13493428)" />
  </defs>
  <circle
     cx="-330.35"
     cy="-328.38"
     r="0"
     fill="#5e4aa6"
     stroke-width=".26458"
     id="circle18" />
  <g
     fill="#5e4aa6"
     stroke-width="0.26458"
     id="g28"
     transform="translate(1.5016e-4,-4.9837e-5)">
    <circle
       cx="-330.35001"
       cy="-328.38"
       r="0"
       id="circle20" />
    <circle
       cx="-330.35001"
       cy="-328.37"
       r="0"
       id="circle22" />
    <circle
       cx="-330.35001"
       cy="-328.37"
       r="0"
       id="circle24" />
    <circle
       cx="-352.63"
       cy="-336.82999"
       r="0"
       id="circle26" />
  </g>
  <rect
     ry="15"
     y="1.485"
     x="1.485"
     height="55"
     width="55"
     id="rect1055"
     style="opacity:0.3;fill:#141414;fill-opacity:1;stroke-width:2.74436;stroke-linecap:round;filter:url(#filter1057)"
     transform="matrix(0.26457812,0,0,0.26457812,0.79770305,0.79770305)" />
  <rect
     style="fill:url(#linearGradient1053);fill-opacity:1;stroke-width:0.726098;stroke-linecap:round"
     id="rect1045"
     width="14.551796"
     height="14.551796"
     x="1.1906021"
     y="1.1906021"
     ry="3.9686716" />
  <g
     transform="matrix(0.0085407,0,0,0.0085407,4.0973502,4.0240502)"
     fill="#ffffff"
     id="g38">
    <path
       d="M 437.38,802.66 C 233.41,802.66 67.46,636.71 67.46,432.71 67.46,228.74 233.41,62.85 437.38,62.85 c 204,0 369.95,165.89 369.95,369.86 0,204 -165.95,369.95 -369.95,369.95 z m 0.576,-677.86 c -169.82,0 -307.97,138.11 -307.97,307.9 0,169.86 138.14,308.03 307.97,308.03 169.86,0 308.03,-138.18 308.03,-308.03 0,-169.76 -138.18,-307.9 -308.03,-307.9 z"
       p-id="1306"
       id="path34" />
    <path
       d="m 923.2,977.44 c -8.032,0 -16.064,-2.976 -22.368,-8.96 L 641.572,726.5 c -13.056,-12.416 -13.6,-32.992 -1.28,-46.016 12.448,-12.992 32.992,-13.632 46.016,-1.344 l 259.26,242.11 c 13.024,12.352 13.568,32.96 1.248,46.016 -6.4,6.72 -15.008,10.176 -23.616,10.176 z"
       p-id="1307"
       id="path36" />
  </g>
</svg>
