<?xml version="1.0" encoding="UTF-8" standalone="no"?>
<svg
   xmlns:dc="http://purl.org/dc/elements/1.1/"
   xmlns:cc="http://creativecommons.org/ns#"
   xmlns:rdf="http://www.w3.org/1999/02/22-rdf-syntax-ns#"
   xmlns:svg="http://www.w3.org/2000/svg"
   xmlns="http://www.w3.org/2000/svg"
   xmlns:xlink="http://www.w3.org/1999/xlink"
   xmlns:sodipodi="http://sodipodi.sourceforge.net/DTD/sodipodi-0.dtd"
   xmlns:inkscape="http://www.inkscape.org/namespaces/inkscape"
   inkscape:version="1.0.1 (3bc2e813f5, 2020-09-07)"
   sodipodi:docname="telegram.svg"
   id="svg25"
   viewBox="0 0 64 64"
   version="1.1"
   height="64"
   width="64">
  <metadata
     id="metadata29">
    <rdf:RDF>
      <cc:Work
         rdf:about="">
        <dc:format>image/svg+xml</dc:format>
        <dc:type
           rdf:resource="http://purl.org/dc/dcmitype/StillImage" />
        <dc:title />
      </cc:Work>
    </rdf:RDF>
  </metadata>
  <sodipodi:namedview
     inkscape:current-layer="svg25"
     inkscape:window-maximized="1"
     inkscape:window-y="30"
     inkscape:window-x="0"
     inkscape:cy="36.634688"
     inkscape:cx="48.635296"
     inkscape:zoom="6.6328124"
     showgrid="false"
     id="namedview27"
     inkscape:window-height="1277"
     inkscape:window-width="2160"
     inkscape:pageshadow="2"
     inkscape:pageopacity="0"
     guidetolerance="10"
     gridtolerance="10"
     objecttolerance="10"
     borderopacity="1"
     bordercolor="#666666"
     pagecolor="#ffffff"
     inkscape:document-rotation="0" />
  <defs
     id="defs7">
    <linearGradient
       id="linearGradient1024-1"
       x1="1.3315"
       x2="15.65"
       y1="15.576"
       y2="1.17"
       gradientTransform="matrix(3.779602,0,0,3.779602,-0.00321238,0.25036112)"
       gradientUnits="userSpaceOnUse">
      <stop
         stop-color="#00c8ff"
         offset="0"
         id="stop857" />
      <stop
         stop-color="#14a0ff"
         offset="1"
         id="stop859" />
    </linearGradient>
    <linearGradient
       id="w"
       x1="123.64"
       x2="146.53"
       y1="131.03"
       y2="174.71"
       gradientTransform="matrix(4.2812,0,0,3.5908,41,42)"
       gradientUnits="userSpaceOnUse">
      <stop
         stop-color="#fafafa"
         offset="0"
         id="stop917" />
      <stop
         stop-color="#fff"
         offset="1"
         id="stop919" />
    </linearGradient>
    <filter
       id="filter1152"
       x="-.055255"
       y="-.065641"
       width="1.1105"
       height="1.1313"
       color-interpolation-filters="sRGB">
      <feGaussianBlur
         stdDeviation="2.9934784"
         id="feGaussianBlur922" />
    </filter>
    <filter
       inkscape:collect="always"
       style="color-interpolation-filters:sRGB"
       id="filter1057"
       x="-0.027000001"
       width="1.054"
       y="-0.027000001"
       height="1.054">
      <feGaussianBlur
         inkscape:collect="always"
         stdDeviation="0.61875"
         id="feGaussianBlur1059" />
    </filter>
    <linearGradient
       inkscape:collect="always"
       xlink:href="#linearGradient1024-1"
       id="linearGradient1053"
       x1="-127"
       y1="60"
       x2="-72"
       y2="5"
       gradientUnits="userSpaceOnUse"
       gradientTransform="translate(131.5,-0.50999711)" />
  </defs>
  <g
     id="g937"
     stroke-width="0.26458"
     fill="#5e4aa6"
     transform="matrix(3.779602,0,0,3.779602,3.9134265,-70.54798)">
    <circle
       id="circle929"
       r="0"
       cy="-328.38"
       cx="-330.35001" />
    <circle
       id="circle931"
       r="0"
       cy="-326.25"
       cx="-312.10999" />
    <circle
       id="circle933"
       r="0"
       cy="-333.07001"
       cx="-306.01999" />
    <circle
       id="circle935"
       r="0"
       cy="-326.01001"
       cx="-308.84" />
  </g>
  <rect
     ry="15"
     y="4.4999995"
     x="4.4999995"
     height="55"
     width="55"
     id="rect1055"
     style="opacity:0.3;fill:#141414;fill-opacity:1;stroke-width:2.74436;stroke-linecap:round;filter:url(#filter1057)" />
  <rect
     style="fill:url(#linearGradient1053);fill-opacity:1;stroke-width:2.74436;stroke-linecap:round"
     id="rect1045"
     width="54.999996"
     height="54.999996"
     x="4.5000019"
     y="4.5000019"
     ry="14.999999" />
  <g
     style="fill:#0064c8;fill-opacity:1"
     transform="matrix(0.23968387,0,0,0.23950657,4.5801197,1.6051713)"
     fill="#000096"
     filter="url(#filter1152)"
     image-rendering="optimizeSpeed"
     opacity="0.3"
     stroke-width="15.683"
     id="g947">
    <path
       style="fill:#0064c8;fill-opacity:1"
       d="m 98,175 c -3.8876,0 -3.227,-1.4679 -4.5678,-5.1695 l -11.432,-37.625 88,-52.206"
       id="path941" />
    <path
       style="fill:#0064c8;fill-opacity:1"
       d="m 98,175 c 3,0 4.3255,-1.372 6,-3 l 16,-15.558 -19.958,-12.035"
       id="path943" />
    <path
       style="fill:#0064c8;fill-opacity:1"
       d="m 100.04,144.41 48.36,35.729 c 5.5185,3.0449 9.5014,1.4684 10.876,-5.1235 l 19.685,-92.763 c 2.0154,-8.0802 -3.0801,-11.745 -8.3594,-9.3482 l -115.59,44.571 c -7.8901,3.1647 -6.9241,9.4078 -0.51824,11.369 l 29.663,9.2583 67.753,-45.166 c 3.2419,-1.9659 6.2173,-0.90899 3.7752,1.2584"
       id="path945" />
  </g>
  <g
     transform="matrix(0.05959214,0,0,0.05959214,2.8820469,-0.15460576)"
     image-rendering="optimizeSpeed"
     stroke-width="61.492"
     id="g955">
    <path
       d="m 425.24,728.15 c -15.243,0 -12.653,-5.7554 -17.91,-20.269 l -44.824,-147.52 345.03,-204.69"
       fill="#cdf2fd"
       id="path949" />
    <path
       d="m 425.24,728.15 c 11.762,0 16.96,-5.3794 23.525,-11.762 l 62.733,-61 -78.252,-47.187"
       fill="#ace6fb"
       id="path951" />
    <path
       style="fill:url(#w)"
       d="M 433.24,608.21 622.85,748.3 c 21.637,11.939 37.253,5.7574 42.643,-20.088 l 77.182,-363.71 c 7.902,-31.681 -12.077,-46.05 -32.776,-36.653 l -453.21,174.76 c -30.936,12.408 -30.755,29.667 -5.6389,37.358 l 116.3,36.3 269.26,-169.87 c 12.711,-7.708 24.377,-3.564 14.802,4.934"
       fill="url(#w)"
       id="path953" />
  </g>
</svg>
