<?xml version="1.0" encoding="UTF-8" standalone="no"?>
<svg xmlns:dc="http://purl.org/dc/elements/1.1/" xmlns:cc="http://creativecommons.org/ns#" xmlns:rdf="http://www.w3.org/1999/02/22-rdf-syntax-ns#" xmlns:svg="http://www.w3.org/2000/svg" xmlns="http://www.w3.org/2000/svg" xmlns:xlink="http://www.w3.org/1999/xlink" xmlns:sodipodi="http://sodipodi.sourceforge.net/DTD/sodipodi-0.dtd" xmlns:inkscape="http://www.inkscape.org/namespaces/inkscape" width="64" height="64" version="1.1" viewBox="0 0 16.933 16.933" id="svg84" sodipodi:docname="wechat.svg" inkscape:version="1.0.1 (3bc2e813f5, 2020-09-07)">
  <sodipodi:namedview pagecolor="#ffffff" bordercolor="#666666" borderopacity="1" objecttolerance="10" gridtolerance="10" guidetolerance="10" inkscape:pageopacity="0" inkscape:pageshadow="2" inkscape:window-width="2160" inkscape:window-height="1277" id="namedview86" showgrid="false" inkscape:zoom="11.484375" inkscape:cx="74.26486" inkscape:cy="32" inkscape:window-x="0" inkscape:window-y="30" inkscape:window-maximized="1" inkscape:current-layer="svg84" />
  <metadata id="metadata2">
    <rdf:RDF>
      <cc:Work rdf:about="">
        <dc:format>image/svg+xml</dc:format>
        <dc:type rdf:resource="http://purl.org/dc/dcmitype/StillImage" />
        <dc:title />
      </cc:Work>
    </rdf:RDF>
  </metadata>
  <defs id="defs18">
    <style type="text/css" id="style4" />
    <style type="text/css" id="style6" />
    <style type="text/css" id="style8" />
    <linearGradient id="linearGradient1024-6" x1="1.3315" x2="15.65" y1="15.576" y2="1.17" gradientTransform="translate(-.00069512 .14041)" gradientUnits="userSpaceOnUse">
      <stop stop-color="#00dc96" offset="0" id="stop13" />
      <stop stop-color="#14d29b" offset="1" id="stop15" />
    </linearGradient>
    <filter inkscape:collect="always" style="color-interpolation-filters:sRGB" id="filter1057" x="-0.027000001" width="1.054" y="-0.027000001" height="1.054">
      <feGaussianBlur inkscape:collect="always" stdDeviation="0.61875" id="feGaussianBlur1059" />
    </filter>
    <linearGradient inkscape:collect="always" xlink:href="#linearGradient1024-6" id="linearGradient1053" x1="-127" y1="60" x2="-72" y2="5" gradientUnits="userSpaceOnUse" gradientTransform="matrix(0.26457812,0,0,0.26457812,34.792023,-0.13493422)" />
  </defs>
  <rect ry="15" y="1.485" x="1.485" height="55" width="55" id="rect1055" style="opacity:0.3;fill:#141414;fill-opacity:1;stroke-width:2.74436;stroke-linecap:round;filter:url(#filter1057)" transform="matrix(0.26457812,0,0,0.26457812,0.79770305,0.79770305)" />
  <rect style="fill:url(#linearGradient1053);fill-opacity:1;stroke-width:0.726098;stroke-linecap:round" id="rect1045" width="14.551796" height="14.551796" x="1.1906021" y="1.1906021" ry="3.9686716" />
  <g fill="#5e4aa6" id="g72">
    <circle cx="-330.35" cy="-328.38" r="0" stroke-width=".26458" id="circle20" />
    <g transform="translate(-32.072 -7.8208)" stroke-width=".26458" id="g28">
      <circle cx="-330.35" cy="-328.38" r="0" id="circle22" />
      <circle cx="-363.86" cy="-335.91" r="0" id="circle24" />
      <circle cx="-72.941" cy="-1.0938" r="0" fill-rule="evenodd" id="circle26" />
    </g>
    <g transform="translate(-36.404 -14.774)" stroke-width=".26458" id="g38">
      <circle cx="-330.35" cy="-328.38" r="0" id="circle30" />
      <circle cx="-312.11" cy="-326.25" r="0" id="circle32" />
      <circle cx="-306.02" cy="-333.07" r="0" id="circle34" />
      <circle cx="-308.84" cy="-326.01" r="0" id="circle36" />
    </g>
    <g transform="matrix(.26458 0 0 .26458 4.6405e-6 4.6405e-6)" stroke-width=".26458" id="g70">
      <g transform="matrix(3.7796 0 0 3.7796 -.10281 .024568)" id="g48">
        <circle cx="-330.35" cy="-328.38" r="0" id="circle40" />
        <circle cx="-312.11" cy="-326.25" r="0" id="circle42" />
        <circle cx="-306.02" cy="-333.07" r="0" id="circle44" />
        <circle cx="-308.84" cy="-326.01" r="0" id="circle46" />
      </g>
      <g transform="matrix(3.7796 0 0 3.7796 -.10281 .024568)" id="g58">
        <circle cx="-330.35" cy="-328.38" r="0" id="circle50" />
        <circle cx="-312.11" cy="-326.25" r="0" id="circle52" />
        <circle cx="-306.02" cy="-333.07" r="0" id="circle54" />
        <circle cx="-308.84" cy="-326.01" r="0" id="circle56" />
      </g>
      <g transform="matrix(3.7796 0 0 3.7796 -.10224 .024379)" id="g68">
        <circle cx="-330.35" cy="-328.38" r="0" id="circle60" />
        <circle cx="-312.11" cy="-326.25" r="0" id="circle62" />
        <circle cx="-306.02" cy="-333.07" r="0" id="circle64" />
        <circle cx="-308.84" cy="-326.01" r="0" id="circle66" />
      </g>
    </g>
  </g>
  <g transform="translate(-0.02777476,0.00510592)" fill="white" fill-rule="evenodd" id="g82">
    <path transform="scale(0.26458)" d="m 26.77,15.721 c -7.7546,1.05e-4 -14.041,5.8011 -14.041,12.957 0.0014,3.9709 1.9759,7.7219 5.3574,10.178 -0.02173,0.05031 -0.95727,2.2153 -2.3633,3.8203 0,0 2.6081,-0.19962 5.0625,-2.2891 1.8707,0.81801 3.9143,1.2442 5.9844,1.248 0.77821,-0.0011 1.555,-0.06181 2.3223,-0.18164 -0.62151,-1.3526 -0.9668,-2.8428 -0.9668,-4.4102 0,-6.2486 5.4798,-11.258 12.129,-11.258 h 0.18359 c -1.4601,-5.8828 -7.128,-10.056 -13.668,-10.064 z m -5.1816,6.4551 a 2.1595,2.1595 0 0 1 2.1582,2.1602 2.1595,2.1595 0 0 1 -2.1582,2.1582 2.1595,2.1595 0 0 1 -2.1602,-2.1582 2.1595,2.1595 0 0 1 2.1602,-2.1602 z m 10.07,0 a 2.1595,2.1595 0 0 1 2.1602,2.1602 2.1595,2.1595 0 0 1 -2.1602,2.1582 2.1595,2.1595 0 0 1 -2.1602,-2.1582 2.1595,2.1595 0 0 1 2.1602,-2.1602 z" stroke-width="2.2481" id="path78" />
    <path transform="scale(0.26458)" d="m 40.252,26.686 a 11.228,10.361 0 0 0 -11.227,10.359 11.228,10.361 0 0 0 11.227,10.361 11.228,10.361 0 0 0 4.7871,-0.99805 c 1.9626,1.6707 4.0469,1.832 4.0469,1.832 -1.1244,-1.2834 -1.8713,-3.0163 -1.8887,-3.0566 a 11.228,10.361 0 0 0 4.2832,-8.1387 11.228,10.361 0 0 0 -11.229,-10.359 z m -4.1426,5.1914 a 1.7268,1.7268 0 0 1 1.7266,1.7266 1.7268,1.7268 0 0 1 -1.7266,1.7266 1.7268,1.7268 0 0 1 -1.7266,-1.7266 1.7268,1.7268 0 0 1 1.7266,-1.7266 z m 8.0547,0 a 1.7268,1.7268 0 0 1 1.7266,1.7266 1.7268,1.7268 0 0 1 -1.7266,1.7266 1.7268,1.7268 0 0 1 -1.7266,-1.7266 1.7268,1.7268 0 0 1 1.7266,-1.7266 z" stroke-width="1.7976" id="path80" />
  </g>
</svg>
